M48
;Layer_Color=9474304
;FILE_FORMAT=4:4
METRIC,TZ
;TYPE=PLATED
T1F00S00C0.5000
T2F00S00C0.7112
T3F00S00C0.7620
T4F00S00C0.8100
T5F00S00C0.8500
T6F00S00C1.1000
T7F00S00C1.2500
T8F00S00C3.3000
T9F00S00C3.5000
T10F00S00C4.0000
%
T01
X295910Y639410
Y651910
Y664410
Y676910
Y689410
Y701910
T02
X1023620Y452120
X1032510Y558800
X998220Y712470
X981710Y774700
X551180Y675640
X557530Y527050
X359410Y840740
X551180Y807720
X604520
X666750Y859790
X678180Y960120
Y1050290
X787654Y915162
X763270Y843280
X815848Y828802
X849884
X814070Y935990
X950976Y933958
X998220Y944880
X1062895Y913098
X1062990Y982980
X1014730Y1029970
X1243330Y929640
X650240Y1226820
X675640Y1292860
T03
X678180Y325120
Y350520
Y375920
X938530
Y350520
Y325120
Y401320
Y426720
Y452120
Y477520
Y502920
Y528320
Y553720
Y579120
Y604520
Y629920
Y655320
Y680720
Y706120
Y731520
Y756920
Y782320
X678180
Y756920
Y731520
Y706120
Y680720
Y655320
Y629920
Y604520
Y579120
Y553720
Y528320
Y502920
Y477520
Y452120
Y426720
Y401320
X383540Y915670
X358140
Y1042670
X383540
X408940
X434340
X459740
X485140
X510540
X535940
X561340
X585470
Y915670
X561340
X535940
X510540
X485140
X459740
X434340
X408940
X713740Y960120
X739140
X764540
X789940
X678180Y807720
X938530
X942340Y960120
X916940
X891540
X866140
X840740
X815340
X1083310Y895350
Y869950
Y844550
Y819150
X1210310
Y844550
Y869950
Y895350
T04
X345440Y690880
Y716280
X379730Y1093470
X405130
X585470Y858520
X610870
X713740Y913130
X739140
X1263650Y844550
Y819150
T05
X1012190Y386080
X1062190
T06
X650240Y1261110
X675640
T07
X300990Y299720
Y325120
Y350520
X1291590
Y325120
Y299720
X1270000Y1219200
Y1244600
Y1270000
X962660Y1261110
X937260
X911860
X304800Y1262380
Y1236980
Y1211580
T08
X480060Y313690
X1107440
X1270000Y477520
X1107440Y590550
X993140Y477520
X594360
X480060Y590550
X318770Y477520
X317500Y1103630
X594360Y1102360
X481330Y989330
X994410Y1102360
X1107440Y989330
X1268730Y1102360
X1106170Y1267460
X481330Y1266190
T09
X363220Y979170
X577850
T10
X726440Y1069340
X935990
M30
