G04*
G04 #@! TF.GenerationSoftware,Altium Limited,Altium Designer,21.3.2 (30)*
G04*
G04 Layer_Physical_Order=1*
G04 Layer_Color=255*
%FSLAX44Y44*%
%MOMM*%
G71*
G04*
G04 #@! TF.SameCoordinates,EA2A0073-599B-4117-A15E-BD5A8767513D*
G04*
G04*
G04 #@! TF.FilePolarity,Positive*
G04*
G01*
G75*
%ADD29C,1.0160*%
%ADD30C,0.7620*%
%ADD31C,1.5240*%
%ADD32C,0.8500*%
%ADD33R,0.8500X0.8500*%
%ADD34R,1.3180X1.3180*%
%ADD35C,1.3180*%
%ADD36R,1.2000X1.2000*%
%ADD37C,1.2000*%
%ADD38R,1.3180X1.3180*%
%ADD39R,1.8750X1.8750*%
%ADD40C,1.6500*%
%ADD41C,1.8750*%
%ADD42R,1.8750X1.8750*%
%ADD43C,1.2700*%
%ADD44C,4.0000*%
%ADD45C,3.5000*%
%ADD46C,3.3000*%
D29*
X403860Y1093470D02*
X404552Y1092778D01*
X403860Y1093470D02*
Y1286908D01*
X787654Y896222D02*
Y915162D01*
X781702Y890270D02*
X787654Y896222D01*
X713740D02*
Y913130D01*
Y896222D02*
X719692Y890270D01*
X781702D01*
X551180Y807720D02*
X604520D01*
X352176Y840254D02*
X358924D01*
X359410Y840740D01*
X345440Y833518D02*
X352176Y840254D01*
X1243330Y929640D02*
X1289448D01*
X404552Y1092778D02*
Y1092892D01*
Y1090757D02*
Y1092778D01*
X292100Y1062118D02*
X298052Y1068070D01*
X397908D01*
X292100Y722232D02*
Y1062118D01*
X397908Y1068070D02*
X403860Y1074022D01*
Y1090064D01*
X404552Y1092892D02*
X405130Y1093470D01*
X403860Y1090064D02*
X404552Y1090757D01*
X292100Y722232D02*
X298052Y716280D01*
X345440D01*
X664793Y858520D02*
X666063Y859790D01*
X610870Y858520D02*
X664793D01*
X666063Y859790D02*
X666750D01*
X409812Y1292860D02*
X675640D01*
X403860Y1286908D02*
X409812Y1292860D01*
X650240Y892909D02*
Y1226820D01*
X644288Y886957D02*
X650240Y892909D01*
X345440Y716280D02*
Y833518D01*
X678180Y960120D02*
Y1050290D01*
X585470Y881006D02*
X591422Y886957D01*
X644288D01*
X585470Y858520D02*
Y881006D01*
X1062943Y982933D02*
X1062990Y982980D01*
X1062943Y914271D02*
Y982933D01*
X1062895Y914224D02*
X1062943Y914271D01*
X1062895Y913098D02*
Y914224D01*
X1289448Y929640D02*
X1295400Y923688D01*
X1263650Y819150D02*
X1289448D01*
X1295400Y825102D01*
Y923688D01*
D30*
X533400Y531514D02*
X537864Y527050D01*
X557530D01*
X533400Y531514D02*
Y838816D01*
X551180Y675640D02*
X633946D01*
X639680Y681374D01*
X533400Y838816D02*
X537864Y843280D01*
X763270D01*
X1016000Y549910D02*
X1023620Y542290D01*
Y452120D02*
Y542290D01*
X849884Y828802D02*
Y931526D01*
X814070Y935990D02*
X845420D01*
X849884Y931526D01*
X998220Y712470D02*
Y944880D01*
X981710Y774700D02*
Y929494D01*
X1016000Y549910D02*
X1016000Y1028595D01*
X644143Y828802D02*
X815848D01*
X639680Y824338D02*
X644143Y828802D01*
X639680Y681374D02*
Y824338D01*
X977246Y933958D02*
X981710Y929494D01*
X950976Y933958D02*
X977246D01*
X1306176Y304808D02*
X1310640Y309272D01*
Y554336D01*
X1296678Y304808D02*
X1306176D01*
X1291590Y299720D02*
X1296678Y304808D01*
X1306176Y558800D02*
X1310640Y554336D01*
X1032510Y558800D02*
X1306176D01*
D31*
X938530Y807720D02*
D03*
Y782320D02*
D03*
Y756920D02*
D03*
Y731520D02*
D03*
Y680720D02*
D03*
Y706120D02*
D03*
Y655320D02*
D03*
Y629920D02*
D03*
Y579120D02*
D03*
Y604520D02*
D03*
Y553720D02*
D03*
Y528320D02*
D03*
Y477520D02*
D03*
Y502920D02*
D03*
Y452120D02*
D03*
Y426720D02*
D03*
Y375920D02*
D03*
Y401320D02*
D03*
Y350520D02*
D03*
X678180Y807720D02*
D03*
Y782320D02*
D03*
Y756920D02*
D03*
Y731520D02*
D03*
Y680720D02*
D03*
Y706120D02*
D03*
Y655320D02*
D03*
Y629920D02*
D03*
Y579120D02*
D03*
Y604520D02*
D03*
Y553720D02*
D03*
Y528320D02*
D03*
Y477520D02*
D03*
Y502920D02*
D03*
Y452120D02*
D03*
Y426720D02*
D03*
Y375920D02*
D03*
Y401320D02*
D03*
Y350520D02*
D03*
X938530Y325120D02*
D03*
X678180D02*
D03*
X713740Y960120D02*
D03*
X739140D02*
D03*
X764540D02*
D03*
X789940D02*
D03*
X866140D02*
D03*
X815340D02*
D03*
X840740D02*
D03*
X891540D02*
D03*
X916940D02*
D03*
X942340D02*
D03*
X1083310Y895350D02*
D03*
Y869950D02*
D03*
Y844550D02*
D03*
Y819150D02*
D03*
X1210310Y895350D02*
D03*
Y869950D02*
D03*
Y844550D02*
D03*
Y819150D02*
D03*
X358140Y915670D02*
D03*
X383540D02*
D03*
X408940D02*
D03*
X434340D02*
D03*
X459740D02*
D03*
X485140D02*
D03*
X510540D02*
D03*
X535940D02*
D03*
X561340D02*
D03*
X585470D02*
D03*
X358140Y1042670D02*
D03*
X383540D02*
D03*
X408940D02*
D03*
X434340D02*
D03*
X459740D02*
D03*
X485140D02*
D03*
X510540D02*
D03*
X535940D02*
D03*
X561340D02*
D03*
X585470D02*
D03*
D32*
X295910Y701910D02*
D03*
Y676910D02*
D03*
Y664410D02*
D03*
Y651910D02*
D03*
Y689410D02*
D03*
D33*
Y639410D02*
D03*
D34*
X345440Y690880D02*
D03*
X1263650Y819150D02*
D03*
D35*
X345440Y716280D02*
D03*
X739140Y913130D02*
D03*
X1263650Y844550D02*
D03*
X405130Y1093470D02*
D03*
X610870Y858520D02*
D03*
D36*
X1012190Y386080D02*
D03*
D37*
X1062190D02*
D03*
D38*
X713740Y913130D02*
D03*
X379730Y1093470D02*
D03*
X585470Y858520D02*
D03*
D39*
X962660Y1261110D02*
D03*
D40*
X650240D02*
D03*
X675640D02*
D03*
D41*
X937260D02*
D03*
X911860D02*
D03*
X1270000Y1270000D02*
D03*
Y1244600D02*
D03*
X1291590Y350520D02*
D03*
Y325120D02*
D03*
X300990Y350520D02*
D03*
Y325120D02*
D03*
X304800Y1262380D02*
D03*
Y1236980D02*
D03*
D42*
X1270000Y1219200D02*
D03*
X1291590Y299720D02*
D03*
X300990D02*
D03*
X304800Y1211580D02*
D03*
D43*
X551180Y807720D02*
D03*
X557530Y527050D02*
D03*
X551180Y675640D02*
D03*
X1023620Y452120D02*
D03*
X763270Y843280D02*
D03*
X359410Y840740D02*
D03*
X998220Y944880D02*
D03*
X1243330Y929640D02*
D03*
X998220Y712470D02*
D03*
X981710Y774700D02*
D03*
X666750Y859790D02*
D03*
X849884Y828802D02*
D03*
X815848D02*
D03*
X675640Y1292860D02*
D03*
X650240Y1226820D02*
D03*
X678180Y1050290D02*
D03*
Y960120D02*
D03*
X604520Y807720D02*
D03*
X1062990Y982980D02*
D03*
X1014730Y1029970D02*
D03*
X1062895Y913098D02*
D03*
X814070Y935990D02*
D03*
X950976Y933958D02*
D03*
X787654Y915162D02*
D03*
X1032510Y558800D02*
D03*
D44*
X726440Y1069340D02*
D03*
X935990D02*
D03*
D45*
X363220Y979170D02*
D03*
X577850D02*
D03*
D46*
X1107440Y590550D02*
D03*
X993140Y477520D02*
D03*
X1270000D02*
D03*
X480060Y590550D02*
D03*
X594360Y477520D02*
D03*
Y1102360D02*
D03*
X317500Y1103630D02*
D03*
X994410Y1102360D02*
D03*
X481330Y989330D02*
D03*
X1268730Y1102360D02*
D03*
X1107440Y989330D02*
D03*
X318770Y477520D02*
D03*
X480060Y313690D02*
D03*
X1107440D02*
D03*
X1106170Y1267460D02*
D03*
X481330Y1266190D02*
D03*
M02*
