G04*
G04 #@! TF.GenerationSoftware,Altium Limited,Altium Designer,21.3.2 (30)*
G04*
G04 Layer_Color=16711935*
%FSLAX44Y44*%
%MOMM*%
G71*
G04*
G04 #@! TF.SameCoordinates,EA2A0073-599B-4117-A15E-BD5A8767513D*
G04*
G04*
G04 #@! TF.FilePolarity,Positive*
G04*
G01*
G75*
%ADD10C,0.1270*%
%ADD11C,0.2000*%
%ADD47C,0.1000*%
D10*
X1087190Y386080D02*
G03*
X1087190Y386080I-50000J0D01*
G01*
X295910Y621410D02*
X298910Y616410D01*
X292910D02*
X295910Y621410D01*
X292910Y616410D02*
X298910D01*
X275410Y716910D02*
X307410D01*
X275410Y624410D02*
Y716910D01*
Y624410D02*
X307410D01*
Y716910D01*
X332740Y684530D02*
X358140D01*
Y722630D01*
X332740D02*
X358140D01*
X332740Y684530D02*
Y722630D01*
X707390Y900430D02*
Y925830D01*
Y900430D02*
X745490D01*
Y925830D01*
X707390D02*
X745490D01*
X1250950Y812800D02*
X1276350D01*
Y850900D01*
X1250950D02*
X1276350D01*
X1250950Y812800D02*
Y850900D01*
X373380Y1080770D02*
Y1106170D01*
Y1080770D02*
X411480D01*
Y1106170D01*
X373380D02*
X411480D01*
X579120Y845820D02*
Y871220D01*
Y845820D02*
X617220D01*
Y871220D01*
X579120D02*
X617220D01*
X975360Y1248410D02*
Y1273810D01*
X899160D02*
X975360D01*
X899160Y1248410D02*
Y1273810D01*
Y1248410D02*
X975360D01*
X1257300Y1206500D02*
X1282700D01*
Y1282700D01*
X1257300D02*
X1282700D01*
X1257300Y1206500D02*
Y1282700D01*
X1278890Y287020D02*
X1304290D01*
Y363220D01*
X1278890D02*
X1304290D01*
X1278890Y287020D02*
Y363220D01*
X288290Y287020D02*
X313690D01*
Y363220D01*
X288290D02*
X313690D01*
X288290Y287020D02*
Y363220D01*
X292100Y1198880D02*
X317500D01*
Y1275080D01*
X292100D02*
X317500D01*
X292100Y1198880D02*
Y1275080D01*
D11*
X980690Y386080D02*
G03*
X980690Y386080I-1000J0D01*
G01*
X981760Y1261110D02*
G03*
X981760Y1261110I-1000J0D01*
G01*
X1271000Y1201100D02*
G03*
X1271000Y1201100I-1000J0D01*
G01*
X1292590Y281620D02*
G03*
X1292590Y281620I-1000J0D01*
G01*
X301990D02*
G03*
X301990Y281620I-1000J0D01*
G01*
X305800Y1193480D02*
G03*
X305800Y1193480I-1000J0D01*
G01*
D47*
X688340Y1248410D02*
Y1273810D01*
X637540D02*
X688340D01*
X637540Y1248410D02*
Y1273810D01*
Y1248410D02*
X688340D01*
M02*
