G04*
G04 #@! TF.GenerationSoftware,Altium Limited,Altium Designer,21.3.2 (30)*
G04*
G04 Layer_Color=8388736*
%FSLAX44Y44*%
%MOMM*%
G71*
G04*
G04 #@! TF.SameCoordinates,EA2A0073-599B-4117-A15E-BD5A8767513D*
G04*
G04*
G04 #@! TF.FilePolarity,Negative*
G04*
G01*
G75*
%ADD13C,1.7272*%
%ADD14C,1.0024*%
%ADD15R,1.0024X1.0024*%
%ADD16R,1.5212X1.5212*%
%ADD17C,1.5212*%
%ADD18R,1.4032X1.4032*%
%ADD19C,1.4032*%
%ADD20R,1.5212X1.5212*%
%ADD21R,2.0782X2.0782*%
%ADD22C,1.8532*%
%ADD23C,2.0782*%
%ADD24R,2.0782X2.0782*%
%ADD25C,1.4732*%
%ADD26C,4.2032*%
%ADD27C,3.7032*%
%ADD28C,3.5032*%
D13*
X938530Y807720D02*
D03*
Y782320D02*
D03*
Y756920D02*
D03*
Y731520D02*
D03*
Y680720D02*
D03*
Y706120D02*
D03*
Y655320D02*
D03*
Y629920D02*
D03*
Y579120D02*
D03*
Y604520D02*
D03*
Y553720D02*
D03*
Y528320D02*
D03*
Y477520D02*
D03*
Y502920D02*
D03*
Y452120D02*
D03*
Y426720D02*
D03*
Y375920D02*
D03*
Y401320D02*
D03*
Y350520D02*
D03*
X678180Y807720D02*
D03*
Y782320D02*
D03*
Y756920D02*
D03*
Y731520D02*
D03*
Y680720D02*
D03*
Y706120D02*
D03*
Y655320D02*
D03*
Y629920D02*
D03*
Y579120D02*
D03*
Y604520D02*
D03*
Y553720D02*
D03*
Y528320D02*
D03*
Y477520D02*
D03*
Y502920D02*
D03*
Y452120D02*
D03*
Y426720D02*
D03*
Y375920D02*
D03*
Y401320D02*
D03*
Y350520D02*
D03*
X938530Y325120D02*
D03*
X678180D02*
D03*
X713740Y960120D02*
D03*
X739140D02*
D03*
X764540D02*
D03*
X789940D02*
D03*
X866140D02*
D03*
X815340D02*
D03*
X840740D02*
D03*
X891540D02*
D03*
X916940D02*
D03*
X942340D02*
D03*
X1083310Y895350D02*
D03*
Y869950D02*
D03*
Y844550D02*
D03*
Y819150D02*
D03*
X1210310Y895350D02*
D03*
Y869950D02*
D03*
Y844550D02*
D03*
Y819150D02*
D03*
X358140Y915670D02*
D03*
X383540D02*
D03*
X408940D02*
D03*
X434340D02*
D03*
X459740D02*
D03*
X485140D02*
D03*
X510540D02*
D03*
X535940D02*
D03*
X561340D02*
D03*
X585470D02*
D03*
X358140Y1042670D02*
D03*
X383540D02*
D03*
X408940D02*
D03*
X434340D02*
D03*
X459740D02*
D03*
X485140D02*
D03*
X510540D02*
D03*
X535940D02*
D03*
X561340D02*
D03*
X585470D02*
D03*
D14*
X295910Y701910D02*
D03*
Y676910D02*
D03*
Y664410D02*
D03*
Y651910D02*
D03*
Y689410D02*
D03*
D15*
Y639410D02*
D03*
D16*
X345440Y690880D02*
D03*
X1263650Y819150D02*
D03*
D17*
X345440Y716280D02*
D03*
X739140Y913130D02*
D03*
X1263650Y844550D02*
D03*
X405130Y1093470D02*
D03*
X610870Y858520D02*
D03*
D18*
X1012190Y386080D02*
D03*
D19*
X1062190D02*
D03*
D20*
X713740Y913130D02*
D03*
X379730Y1093470D02*
D03*
X585470Y858520D02*
D03*
D21*
X962660Y1261110D02*
D03*
D22*
X650240D02*
D03*
X675640D02*
D03*
D23*
X937260D02*
D03*
X911860D02*
D03*
X1270000Y1270000D02*
D03*
Y1244600D02*
D03*
X1291590Y350520D02*
D03*
Y325120D02*
D03*
X300990Y350520D02*
D03*
Y325120D02*
D03*
X304800Y1262380D02*
D03*
Y1236980D02*
D03*
D24*
X1270000Y1219200D02*
D03*
X1291590Y299720D02*
D03*
X300990D02*
D03*
X304800Y1211580D02*
D03*
D25*
X551180Y807720D02*
D03*
X557530Y527050D02*
D03*
X551180Y675640D02*
D03*
X1023620Y452120D02*
D03*
X763270Y843280D02*
D03*
X359410Y840740D02*
D03*
X998220Y944880D02*
D03*
X1243330Y929640D02*
D03*
X998220Y712470D02*
D03*
X981710Y774700D02*
D03*
X666750Y859790D02*
D03*
X849884Y828802D02*
D03*
X815848D02*
D03*
X675640Y1292860D02*
D03*
X650240Y1226820D02*
D03*
X678180Y1050290D02*
D03*
Y960120D02*
D03*
X604520Y807720D02*
D03*
X1062990Y982980D02*
D03*
X1014730Y1029970D02*
D03*
X1062895Y913098D02*
D03*
X814070Y935990D02*
D03*
X950976Y933958D02*
D03*
X787654Y915162D02*
D03*
X1032510Y558800D02*
D03*
D26*
X726440Y1069340D02*
D03*
X935990D02*
D03*
D27*
X363220Y979170D02*
D03*
X577850D02*
D03*
D28*
X1107440Y590550D02*
D03*
X993140Y477520D02*
D03*
X1270000D02*
D03*
X480060Y590550D02*
D03*
X594360Y477520D02*
D03*
Y1102360D02*
D03*
X317500Y1103630D02*
D03*
X994410Y1102360D02*
D03*
X481330Y989330D02*
D03*
X1268730Y1102360D02*
D03*
X1107440Y989330D02*
D03*
X318770Y477520D02*
D03*
X480060Y313690D02*
D03*
X1107440D02*
D03*
X1106170Y1267460D02*
D03*
X481330Y1266190D02*
D03*
M02*
