G04*
G04 #@! TF.GenerationSoftware,Altium Limited,Altium Designer,21.3.2 (30)*
G04*
G04 Layer_Color=65535*
%FSLAX44Y44*%
%MOMM*%
G71*
G04*
G04 #@! TF.SameCoordinates,EA2A0073-599B-4117-A15E-BD5A8767513D*
G04*
G04*
G04 #@! TF.FilePolarity,Positive*
G04*
G01*
G75*
%ADD10C,0.1270*%
%ADD11C,0.2000*%
%ADD12C,0.2540*%
D10*
X1087190Y386080D02*
G03*
X1087190Y386080I-50000J0D01*
G01*
X295910Y621410D02*
X298910Y616410D01*
X292910D02*
X295910Y621410D01*
X292910Y616410D02*
X298910D01*
X275410Y716910D02*
X307410D01*
X275410Y624410D02*
Y716910D01*
Y624410D02*
X307410D01*
Y716910D01*
X332740Y684530D02*
X335650D01*
X355230D02*
X358140D01*
X332740Y722630D02*
X335650D01*
X355230D02*
X358140D01*
Y684530D02*
Y722630D01*
X332740Y684530D02*
Y722630D01*
X707390Y922920D02*
Y925830D01*
Y900430D02*
Y903340D01*
X745490Y922920D02*
Y925830D01*
Y900430D02*
Y903340D01*
X707390Y900430D02*
X745490D01*
X707390Y925830D02*
X745490D01*
X1250950Y812800D02*
X1253860D01*
X1273440D02*
X1276350D01*
X1250950Y850900D02*
X1253860D01*
X1273440D02*
X1276350D01*
Y812800D02*
Y850900D01*
X1250950Y812800D02*
Y850900D01*
X373380Y1103260D02*
Y1106170D01*
Y1080770D02*
Y1083680D01*
X411480Y1103260D02*
Y1106170D01*
Y1080770D02*
Y1083680D01*
X373380Y1080770D02*
X411480D01*
X373380Y1106170D02*
X411480D01*
X579120Y868310D02*
Y871220D01*
Y845820D02*
Y848730D01*
X617220Y868310D02*
Y871220D01*
Y845820D02*
Y848730D01*
X579120Y845820D02*
X617220D01*
X579120Y871220D02*
X617220D01*
X975360Y1248410D02*
Y1273810D01*
X899160D02*
X975360D01*
X899160Y1248410D02*
Y1273810D01*
Y1248410D02*
X975360D01*
X1257300Y1206500D02*
X1282700D01*
Y1282700D01*
X1257300D02*
X1282700D01*
X1257300Y1206500D02*
Y1282700D01*
X1278890Y287020D02*
X1304290D01*
Y363220D01*
X1278890D02*
X1304290D01*
X1278890Y287020D02*
Y363220D01*
X288290Y287020D02*
X313690D01*
Y363220D01*
X288290D02*
X313690D01*
X288290Y287020D02*
Y363220D01*
X292100Y1198880D02*
X317500D01*
Y1275080D01*
X292100D02*
X317500D01*
X292100Y1198880D02*
Y1275080D01*
D11*
X980690Y386080D02*
G03*
X980690Y386080I-1000J0D01*
G01*
X981760Y1261110D02*
G03*
X981760Y1261110I-1000J0D01*
G01*
X685940Y1270110D02*
G03*
X685940Y1270110I-1000J0D01*
G01*
X1271000Y1201100D02*
G03*
X1271000Y1201100I-1000J0D01*
G01*
X1292590Y281620D02*
G03*
X1292590Y281620I-1000J0D01*
G01*
X301990D02*
G03*
X301990Y281620I-1000J0D01*
G01*
X305800Y1193480D02*
G03*
X305800Y1193480I-1000J0D01*
G01*
X636540Y1247410D02*
X689340D01*
X636540D02*
Y1274810D01*
X689340D01*
Y1247410D02*
Y1274810D01*
D12*
X676907Y303525D02*
X666750D01*
Y288290D01*
X676907D01*
X666750Y295907D02*
X671828D01*
X692142Y300986D02*
X689603Y303525D01*
X684524D01*
X681985Y300986D01*
Y298447D01*
X684524Y295907D01*
X689603D01*
X692142Y293368D01*
Y290829D01*
X689603Y288290D01*
X684524D01*
X681985Y290829D01*
X697220Y288290D02*
Y303525D01*
X704838D01*
X707377Y300986D01*
Y295907D01*
X704838Y293368D01*
X697220D01*
X712455Y300986D02*
X714994Y303525D01*
X720073D01*
X722612Y300986D01*
Y298447D01*
X720073Y295907D01*
X717534D01*
X720073D01*
X722612Y293368D01*
Y290829D01*
X720073Y288290D01*
X714994D01*
X712455Y290829D01*
X737847Y288290D02*
X727690D01*
X737847Y298447D01*
Y300986D01*
X735308Y303525D01*
X730229D01*
X727690Y300986D01*
X753082D02*
X750543Y303525D01*
X745464D01*
X742925Y300986D01*
Y298447D01*
X745464Y295907D01*
X750543D01*
X753082Y293368D01*
Y290829D01*
X750543Y288290D01*
X745464D01*
X742925Y290829D01*
X758160Y300986D02*
X760700Y303525D01*
X765778D01*
X768317Y300986D01*
Y298447D01*
X765778Y295907D01*
X763239D01*
X765778D01*
X768317Y293368D01*
Y290829D01*
X765778Y288290D01*
X760700D01*
X758160Y290829D01*
X690883Y844548D02*
Y831852D01*
X693422Y829313D01*
X698501D01*
X701040Y831852D01*
Y844548D01*
X706118Y829313D02*
X711197D01*
X708658D01*
Y844548D01*
X706118Y842008D01*
X289561Y749297D02*
X284482D01*
X287022D01*
Y736602D01*
X284482Y734062D01*
X281943D01*
X279404Y736602D01*
X304796Y749297D02*
X299718Y746758D01*
X294639Y741680D01*
Y736602D01*
X297178Y734062D01*
X302257D01*
X304796Y736602D01*
Y739141D01*
X302257Y741680D01*
X294639D01*
X588769Y894330D02*
X586230Y896869D01*
X581151D01*
X578612Y894330D01*
Y884173D01*
X581151Y881634D01*
X586230D01*
X588769Y884173D01*
X604004Y896869D02*
X598925Y894330D01*
X593847Y889251D01*
Y884173D01*
X596386Y881634D01*
X601465D01*
X604004Y884173D01*
Y886712D01*
X601465Y889251D01*
X593847D01*
X383029Y1129280D02*
X380490Y1131819D01*
X375411D01*
X372872Y1129280D01*
Y1119123D01*
X375411Y1116584D01*
X380490D01*
X383029Y1119123D01*
X398264Y1131819D02*
X388107D01*
Y1124202D01*
X393185Y1126741D01*
X395725D01*
X398264Y1124202D01*
Y1119123D01*
X395725Y1116584D01*
X390646D01*
X388107Y1119123D01*
X762001Y919478D02*
X759462Y922018D01*
X754383D01*
X751844Y919478D01*
Y909322D01*
X754383Y906783D01*
X759462D01*
X762001Y909322D01*
X774697Y906783D02*
Y922018D01*
X767079Y914400D01*
X777236D01*
X1260853Y874264D02*
X1258314Y876803D01*
X1253235D01*
X1250696Y874264D01*
Y864107D01*
X1253235Y861568D01*
X1258314D01*
X1260853Y864107D01*
X1265931Y874264D02*
X1268470Y876803D01*
X1273549D01*
X1276088Y874264D01*
Y871725D01*
X1273549Y869185D01*
X1271009D01*
X1273549D01*
X1276088Y866646D01*
Y864107D01*
X1273549Y861568D01*
X1268470D01*
X1265931Y864107D01*
X342643Y745994D02*
X340103Y748533D01*
X335025D01*
X332486Y745994D01*
Y735837D01*
X335025Y733298D01*
X340103D01*
X342643Y735837D01*
X357878Y733298D02*
X347721D01*
X357878Y743455D01*
Y745994D01*
X355339Y748533D01*
X350260D01*
X347721Y745994D01*
X1075690Y454658D02*
X1073151Y457197D01*
X1068073D01*
X1065533Y454658D01*
Y444502D01*
X1068073Y441963D01*
X1073151D01*
X1075690Y444502D01*
X1080768Y441963D02*
X1085847D01*
X1083308D01*
Y457197D01*
X1080768Y454658D01*
X462284Y1079498D02*
Y1066802D01*
X464823Y1064262D01*
X469902D01*
X472441Y1066802D01*
Y1079498D01*
X485137Y1064262D02*
Y1079498D01*
X477519Y1071880D01*
X487676D01*
X339090Y892805D02*
X349247D01*
X344168D01*
Y877570D01*
X354325Y892805D02*
X364482Y877570D01*
Y892805D02*
X354325Y877570D01*
X379717Y890266D02*
X377178Y892805D01*
X372099D01*
X369560Y890266D01*
Y887727D01*
X372099Y885188D01*
X377178D01*
X379717Y882648D01*
Y880109D01*
X377178Y877570D01*
X372099D01*
X369560Y880109D01*
X384795Y890266D02*
X387334Y892805D01*
X392413D01*
X394952Y890266D01*
Y880109D01*
X392413Y877570D01*
X387334D01*
X384795Y880109D01*
Y890266D01*
X400030Y877570D02*
X405109D01*
X402570D01*
Y892805D01*
X400030Y890266D01*
X412726D02*
X415265Y892805D01*
X420344D01*
X422883Y890266D01*
Y880109D01*
X420344Y877570D01*
X415265D01*
X412726Y880109D01*
Y890266D01*
X427961D02*
X430500Y892805D01*
X435579D01*
X438118Y890266D01*
Y887727D01*
X435579Y885188D01*
X438118Y882648D01*
Y880109D01*
X435579Y877570D01*
X430500D01*
X427961Y880109D01*
Y882648D01*
X430500Y885188D01*
X427961Y887727D01*
Y890266D01*
X430500Y885188D02*
X435579D01*
X909063Y1299459D02*
X903984D01*
X906524D01*
Y1286763D01*
X903984Y1284224D01*
X901445D01*
X898906Y1286763D01*
X914141Y1299459D02*
X924298D01*
Y1296920D01*
X914141Y1286763D01*
Y1284224D01*
X1073150Y932175D02*
Y919479D01*
X1075689Y916940D01*
X1080768D01*
X1083307Y919479D01*
Y932175D01*
X1088385Y929636D02*
X1090924Y932175D01*
X1096003D01*
X1098542Y929636D01*
Y927097D01*
X1096003Y924557D01*
X1093463D01*
X1096003D01*
X1098542Y922018D01*
Y919479D01*
X1096003Y916940D01*
X1090924D01*
X1088385Y919479D01*
X1134124Y797558D02*
Y782322D01*
X1141741D01*
X1144281Y784862D01*
Y787401D01*
X1141741Y789940D01*
X1134124D01*
X1141741D01*
X1144281Y792479D01*
Y795018D01*
X1141741Y797558D01*
X1134124D01*
X1149359Y782322D02*
Y797558D01*
X1154437Y792479D01*
X1159516Y797558D01*
Y782322D01*
X1164594D02*
Y797558D01*
X1172212D01*
X1174751Y795018D01*
Y789940D01*
X1172212Y787401D01*
X1164594D01*
X1189986Y797558D02*
X1179829D01*
Y789940D01*
X1184908Y792479D01*
X1187447D01*
X1189986Y789940D01*
Y784862D01*
X1187447Y782322D01*
X1182368D01*
X1179829Y784862D01*
X1195064Y795018D02*
X1197603Y797558D01*
X1202682D01*
X1205221Y795018D01*
Y792479D01*
X1202682Y789940D01*
X1205221Y787401D01*
Y784862D01*
X1202682Y782322D01*
X1197603D01*
X1195064Y784862D01*
Y787401D01*
X1197603Y789940D01*
X1195064Y792479D01*
Y795018D01*
X1197603Y789940D02*
X1202682D01*
X1210299Y795018D02*
X1212839Y797558D01*
X1217917D01*
X1220456Y795018D01*
Y784862D01*
X1217917Y782322D01*
X1212839D01*
X1210299Y784862D01*
Y795018D01*
X702310Y1122675D02*
Y1109979D01*
X704849Y1107440D01*
X709928D01*
X712467Y1109979D01*
Y1122675D01*
X727702Y1107440D02*
X717545D01*
X727702Y1117597D01*
Y1120136D01*
X725163Y1122675D01*
X720084D01*
X717545Y1120136D01*
X825518Y941068D02*
X830597D01*
X828058D01*
Y925833D01*
X825518D01*
X830597D01*
X848371Y938528D02*
X845832Y941068D01*
X840754D01*
X838214Y938528D01*
Y928372D01*
X840754Y925833D01*
X845832D01*
X848371Y928372D01*
X853449Y925833D02*
Y941068D01*
X858528Y935989D01*
X863606Y941068D01*
Y925833D01*
X878841D02*
X868684D01*
X878841Y935989D01*
Y938528D01*
X876302Y941068D01*
X871224D01*
X868684Y938528D01*
X883920D02*
X886459Y941068D01*
X891537D01*
X894076Y938528D01*
Y928372D01*
X891537Y925833D01*
X886459D01*
X883920Y928372D01*
Y938528D01*
X899155Y928372D02*
X901694Y925833D01*
X906772D01*
X909311Y928372D01*
Y938528D01*
X906772Y941068D01*
X901694D01*
X899155Y938528D01*
Y935989D01*
X901694Y933450D01*
X909311D01*
X922007Y925833D02*
Y941068D01*
X914390Y933450D01*
X924547D01*
X929625Y938528D02*
X932164Y941068D01*
X937242D01*
X939781Y938528D01*
Y935989D01*
X937242Y933450D01*
X939781Y930911D01*
Y928372D01*
X937242Y925833D01*
X932164D01*
X929625Y928372D01*
Y930911D01*
X932164Y933450D01*
X929625Y935989D01*
Y938528D01*
X932164Y933450D02*
X937242D01*
X647189Y1299713D02*
X642110D01*
X644650D01*
Y1287017D01*
X642110Y1284478D01*
X639571D01*
X637032Y1287017D01*
X662424Y1299713D02*
X652267D01*
Y1292095D01*
X657345Y1294635D01*
X659885D01*
X662424Y1292095D01*
Y1287017D01*
X659885Y1284478D01*
X654806D01*
X652267Y1287017D01*
X302003Y1300729D02*
X296924D01*
X299464D01*
Y1288033D01*
X296924Y1285494D01*
X294385D01*
X291846Y1288033D01*
X314699Y1285494D02*
Y1300729D01*
X307081Y1293112D01*
X317238D01*
X298193Y388869D02*
X293114D01*
X295653D01*
Y376173D01*
X293114Y373634D01*
X290575D01*
X288036Y376173D01*
X303271Y386330D02*
X305810Y388869D01*
X310889D01*
X313428Y386330D01*
Y383791D01*
X310889Y381251D01*
X308349D01*
X310889D01*
X313428Y378712D01*
Y376173D01*
X310889Y373634D01*
X305810D01*
X303271Y376173D01*
X1288793Y388869D02*
X1283714D01*
X1286254D01*
Y376173D01*
X1283714Y373634D01*
X1281175D01*
X1278636Y376173D01*
X1304028Y373634D02*
X1293871D01*
X1304028Y383791D01*
Y386330D01*
X1301489Y388869D01*
X1296410D01*
X1293871Y386330D01*
X1267203Y1308349D02*
X1262124D01*
X1264663D01*
Y1295653D01*
X1262124Y1293114D01*
X1259585D01*
X1257046Y1295653D01*
X1272281Y1293114D02*
X1277359D01*
X1274820D01*
Y1308349D01*
X1272281Y1305810D01*
M02*
