G04*
G04 #@! TF.GenerationSoftware,Altium Limited,Altium Designer,21.3.2 (30)*
G04*
G04 Layer_Physical_Order=2*
G04 Layer_Color=16711680*
%FSLAX44Y44*%
%MOMM*%
G71*
G04*
G04 #@! TF.SameCoordinates,EA2A0073-599B-4117-A15E-BD5A8767513D*
G04*
G04*
G04 #@! TF.FilePolarity,Positive*
G04*
G01*
G75*
%ADD29C,1.0160*%
%ADD30C,0.7620*%
%ADD31C,1.5240*%
%ADD32C,0.8500*%
%ADD33R,0.8500X0.8500*%
%ADD34R,1.3180X1.3180*%
%ADD35C,1.3180*%
%ADD36R,1.2000X1.2000*%
%ADD37C,1.2000*%
%ADD38R,1.3180X1.3180*%
%ADD39R,1.8750X1.8750*%
%ADD40C,1.6500*%
%ADD41C,1.8750*%
%ADD42R,1.8750X1.8750*%
%ADD43C,1.2700*%
%ADD44C,4.0000*%
%ADD45C,3.5000*%
%ADD46C,3.3000*%
G36*
X281036Y1320800D02*
X281421Y1319530D01*
X279079Y1317965D01*
X279079Y1317965D01*
X274615Y1313501D01*
X272369Y1310141D01*
X271581Y1306176D01*
X271581Y1306176D01*
Y1216044D01*
X271581Y1216044D01*
X272369Y1212079D01*
X274615Y1208719D01*
X279079Y1204255D01*
X279079Y1204255D01*
X282439Y1202010D01*
X286404Y1201221D01*
X291615D01*
Y1198395D01*
X317985D01*
Y1224765D01*
X312831D01*
X312501Y1226035D01*
X315978Y1229511D01*
X317985Y1234357D01*
Y1239603D01*
X315978Y1244449D01*
X312269Y1248158D01*
X308594Y1249680D01*
Y1251055D01*
X311549Y1252279D01*
X314901Y1255631D01*
X316715Y1260010D01*
Y1261110D01*
X304800D01*
Y1262380D01*
X303530D01*
Y1274295D01*
X302430D01*
X298051Y1272481D01*
X294699Y1269129D01*
X293569Y1266401D01*
X292299Y1266654D01*
Y1300281D01*
X665505D01*
X666103Y1299161D01*
X664873Y1297320D01*
X663986Y1292860D01*
Y1261110D01*
X664873Y1256650D01*
X667399Y1252869D01*
X671180Y1250343D01*
X675640Y1249456D01*
X680100Y1250343D01*
X683881Y1252869D01*
X686407Y1256650D01*
X687294Y1261110D01*
Y1292860D01*
X686407Y1297320D01*
X685177Y1299161D01*
X685775Y1300281D01*
X1305361D01*
Y1228220D01*
X1304241Y1227621D01*
X1302520Y1228771D01*
X1298556Y1229559D01*
X1298556Y1229559D01*
X1283185D01*
Y1232385D01*
X1278030D01*
X1277701Y1233655D01*
X1281178Y1237131D01*
X1283185Y1241977D01*
Y1247223D01*
X1281178Y1252069D01*
X1277469Y1255778D01*
X1273793Y1257300D01*
Y1258675D01*
X1276749Y1259899D01*
X1280101Y1263251D01*
X1281915Y1267630D01*
Y1268730D01*
X1270000D01*
Y1270000D01*
X1268730D01*
Y1281915D01*
X1267630D01*
X1267000Y1281654D01*
X1238894D01*
X1234435Y1280767D01*
X1230654Y1278241D01*
X1224702Y1272289D01*
X1222176Y1268508D01*
X1221289Y1264048D01*
Y969234D01*
X1115251D01*
X1115004Y970480D01*
X1118945Y972112D01*
X1124658Y977825D01*
X1127750Y985290D01*
Y993370D01*
X1124658Y1000835D01*
X1118945Y1006548D01*
X1111480Y1009640D01*
X1103400D01*
X1095935Y1006548D01*
X1090222Y1000835D01*
X1087130Y993370D01*
Y985290D01*
X1090222Y977825D01*
X1095935Y972112D01*
X1099876Y970480D01*
X1099629Y969234D01*
X1051784D01*
Y976892D01*
X1053054Y977277D01*
X1054749Y974739D01*
X1058530Y972213D01*
X1062990Y971326D01*
X1067450Y972213D01*
X1071231Y974739D01*
X1073757Y978520D01*
X1074644Y982980D01*
Y1255158D01*
X1073757Y1259618D01*
X1071231Y1263399D01*
X1065279Y1269351D01*
X1061498Y1271877D01*
X1057038Y1272764D01*
X975845D01*
Y1274295D01*
X949475D01*
Y1269140D01*
X948205Y1268811D01*
X944729Y1272288D01*
X939883Y1274295D01*
X934637D01*
X929791Y1272288D01*
X926082Y1268579D01*
X925195Y1266437D01*
X923925D01*
X923038Y1268579D01*
X919329Y1272288D01*
X914483Y1274295D01*
X909237D01*
X904391Y1272288D01*
X900682Y1268579D01*
X898675Y1263733D01*
Y1258487D01*
X900682Y1253641D01*
X901501Y1252823D01*
Y1241444D01*
X901501Y1241444D01*
X902290Y1237479D01*
X904535Y1234119D01*
X908999Y1229655D01*
X908999Y1229655D01*
X912359Y1227410D01*
X916324Y1226621D01*
X1031041D01*
Y1023819D01*
X1026439D01*
X1025662Y1025089D01*
X1026359Y1028595D01*
X1025571Y1032560D01*
X1023325Y1035920D01*
X1022792Y1036276D01*
X1020485Y1038583D01*
X1016751Y1040130D01*
X1012709D01*
X1009871Y1038954D01*
X684074D01*
X683689Y1040224D01*
X686421Y1042049D01*
X688947Y1045830D01*
X689834Y1050290D01*
Y1134508D01*
X688947Y1138968D01*
X686421Y1142749D01*
X680469Y1148701D01*
X676688Y1151227D01*
X672228Y1152114D01*
X384412D01*
X379952Y1151227D01*
X376171Y1148701D01*
X370219Y1142749D01*
X367693Y1138968D01*
X366806Y1134508D01*
Y1105124D01*
X356870D01*
X352410Y1104237D01*
X348629Y1101711D01*
X314339Y1067421D01*
X311813Y1063640D01*
X310926Y1059180D01*
Y812402D01*
X311813Y807942D01*
X314339Y804161D01*
X320291Y798209D01*
X324072Y795683D01*
X328532Y794796D01*
X386333D01*
X411256Y769873D01*
Y702534D01*
X345440D01*
X340980Y701647D01*
X340431Y701280D01*
X335040D01*
Y701264D01*
X303970D01*
Y705249D01*
X299249Y709970D01*
X292571D01*
X287850Y705249D01*
Y698572D01*
X287669Y697650D01*
X285143Y693870D01*
X284256Y689410D01*
X285143Y684950D01*
X287103Y682017D01*
X286339Y680874D01*
X285551Y676910D01*
X286339Y672946D01*
X287867Y670660D01*
X286339Y668374D01*
X285551Y664410D01*
X286339Y660446D01*
X288585Y657085D01*
X289490Y656481D01*
X289614Y655217D01*
X289120Y654722D01*
Y653180D01*
X295910D01*
X302700D01*
Y654051D01*
X385519D01*
Y295294D01*
X385519Y295294D01*
X386307Y291329D01*
X387457Y289609D01*
X386858Y288489D01*
X316437D01*
Y294632D01*
X316437Y294632D01*
X315649Y298596D01*
X314175Y300802D01*
Y312905D01*
X309021D01*
X308691Y314175D01*
X312168Y317651D01*
X314175Y322497D01*
Y327743D01*
X312168Y332589D01*
X308459Y336298D01*
X304783Y337820D01*
Y339195D01*
X307739Y340419D01*
X311091Y343771D01*
X312905Y348150D01*
Y349250D01*
X300990D01*
X289075D01*
Y348150D01*
X290889Y343771D01*
X294241Y340419D01*
X297197Y339195D01*
Y337820D01*
X293521Y336298D01*
X289812Y332589D01*
X287805Y327743D01*
Y322497D01*
X289812Y317651D01*
X293289Y314175D01*
X292959Y312905D01*
X287805D01*
Y286535D01*
X295719D01*
Y282594D01*
X295719Y282594D01*
X296508Y278629D01*
X298753Y275269D01*
X303217Y270805D01*
X303217Y270805D01*
X306578Y268559D01*
X310542Y267771D01*
X828656D01*
X828656Y267771D01*
X832620Y268559D01*
X835981Y270805D01*
X840445Y275269D01*
X840445Y275269D01*
X842691Y278629D01*
X843479Y282594D01*
Y416361D01*
X933671D01*
X936256Y415290D01*
X940804D01*
X945005Y417030D01*
X948220Y420245D01*
X949960Y424446D01*
Y428994D01*
X948220Y433195D01*
X945005Y436410D01*
X940804Y438150D01*
X936256D01*
X933671Y437079D01*
X837584D01*
X833620Y436291D01*
X830779Y434393D01*
X829509Y435035D01*
Y670361D01*
X933671D01*
X936256Y669290D01*
X940804D01*
X945005Y671030D01*
X948220Y674245D01*
X949960Y678446D01*
Y682994D01*
X948220Y687195D01*
X945005Y690410D01*
X940804Y692150D01*
X936256D01*
X933671Y691079D01*
X823614D01*
X819650Y690291D01*
X816289Y688045D01*
X816289Y688045D01*
X811825Y683581D01*
X809579Y680220D01*
X808791Y676256D01*
X808791Y676256D01*
Y301189D01*
X497941D01*
X497391Y302459D01*
X500370Y309650D01*
Y317730D01*
X497278Y325195D01*
X491565Y330908D01*
X484100Y334000D01*
X476020D01*
X468555Y330908D01*
X462842Y325195D01*
X459750Y317730D01*
Y309650D01*
X462729Y302459D01*
X462179Y301189D01*
X406237D01*
Y659947D01*
X405448Y663911D01*
X404432Y665431D01*
X405031Y666551D01*
X545121D01*
X545841Y666069D01*
X549805Y665281D01*
X549805Y665281D01*
X551180D01*
X552181Y665480D01*
X553201D01*
X554144Y665871D01*
X555144Y666069D01*
X555993Y666636D01*
X556935Y667027D01*
X557657Y667748D01*
X558505Y668315D01*
X559072Y669163D01*
X559793Y669885D01*
X560184Y670827D01*
X560751Y671676D01*
X560950Y672676D01*
X561340Y673619D01*
Y674639D01*
X561539Y675640D01*
X561340Y676641D01*
Y677661D01*
X560950Y678604D01*
X560751Y679604D01*
X560184Y680452D01*
X559793Y681395D01*
X559072Y682117D01*
X558505Y682965D01*
X557657Y683532D01*
X556935Y684253D01*
X555993Y684644D01*
X555144Y685210D01*
X554144Y685409D01*
X554035Y685454D01*
X552500Y686480D01*
X548535Y687269D01*
X548535Y687269D01*
X431488D01*
X431002Y688442D01*
X431151Y688591D01*
X433677Y692372D01*
X434564Y696832D01*
Y774700D01*
Y796066D01*
X551180D01*
X555640Y796953D01*
X559421Y799479D01*
X561947Y803260D01*
X562834Y807720D01*
X561947Y812180D01*
X559421Y815961D01*
X555640Y818487D01*
X551180Y819374D01*
X428862D01*
X424402Y818487D01*
X420621Y815961D01*
X414669Y810009D01*
X412143Y806228D01*
X411696Y803979D01*
X410480Y803611D01*
X399401Y814691D01*
X395620Y817217D01*
X391160Y818104D01*
X334234D01*
Y1054353D01*
X361462Y1081581D01*
X362176Y1081493D01*
X362635Y1080157D01*
X349899Y1067421D01*
X347373Y1063640D01*
X346486Y1059180D01*
Y1042670D01*
X346710Y1041544D01*
Y1040396D01*
X347149Y1039336D01*
X347373Y1038210D01*
X347458Y1038083D01*
Y1023222D01*
X348345Y1018762D01*
X350871Y1014981D01*
X356823Y1009029D01*
X360604Y1006503D01*
X365064Y1005616D01*
X467234D01*
X467720Y1004443D01*
X464112Y1000835D01*
X461020Y993370D01*
Y985290D01*
X464112Y977825D01*
X469825Y972112D01*
X477290Y969020D01*
X485370D01*
X492835Y972112D01*
X498548Y977825D01*
X501640Y985290D01*
Y993370D01*
X498548Y1000835D01*
X494940Y1004443D01*
X495426Y1005616D01*
X580788D01*
X585248Y1006503D01*
X589029Y1009029D01*
X594981Y1014981D01*
X597507Y1018762D01*
X598394Y1023222D01*
Y1037808D01*
X598096Y1039306D01*
Y1041698D01*
X597209Y1046158D01*
X594683Y1049939D01*
X593711Y1050911D01*
X593036Y1051361D01*
X593251Y1052300D01*
X593470Y1052631D01*
X606861D01*
Y1033059D01*
X606861Y1033059D01*
X607649Y1029095D01*
X609895Y1025734D01*
X613734Y1021895D01*
X613804Y1021771D01*
Y1020285D01*
X613734Y1020160D01*
X609895Y1016321D01*
X607649Y1012961D01*
X606861Y1008996D01*
X606861Y1008996D01*
Y960319D01*
X590932D01*
X590406Y961589D01*
X595916Y967099D01*
X599160Y974931D01*
Y983409D01*
X595916Y991241D01*
X589921Y997236D01*
X582089Y1000480D01*
X573611D01*
X565779Y997236D01*
X559784Y991241D01*
X556540Y983409D01*
Y974931D01*
X559784Y967099D01*
X565358Y961525D01*
X564996Y960158D01*
X561839Y959530D01*
X558479Y957285D01*
X558479Y957285D01*
X554015Y952821D01*
X551769Y949461D01*
X550981Y945496D01*
X550981Y945496D01*
Y920529D01*
X549910Y917944D01*
Y913396D01*
X551650Y909195D01*
X554865Y905980D01*
X559066Y904240D01*
X563614D01*
X567815Y905980D01*
X571030Y909195D01*
X572546Y912856D01*
X573816Y912603D01*
Y858520D01*
X574703Y854060D01*
X575070Y853511D01*
Y848120D01*
X575086D01*
Y560294D01*
X541892D01*
X537432Y559407D01*
X533651Y556881D01*
X527699Y550929D01*
X525173Y547148D01*
X524286Y542688D01*
Y331072D01*
X525173Y326612D01*
X527699Y322831D01*
X533651Y316879D01*
X537432Y314353D01*
X541892Y313466D01*
X783988D01*
X788448Y314353D01*
X792229Y316879D01*
X798181Y322831D01*
X800707Y326612D01*
X801594Y331072D01*
Y857026D01*
X1050975D01*
X1051462Y855853D01*
X1038239Y842631D01*
X1035713Y838850D01*
X1034826Y834390D01*
Y638956D01*
X1033706Y638358D01*
X1032010Y639491D01*
X1028046Y640279D01*
X1028046Y640279D01*
X943389D01*
X940804Y641350D01*
X936256D01*
X932055Y639610D01*
X928840Y636395D01*
X927100Y632194D01*
Y627646D01*
X928840Y623445D01*
X932055Y620230D01*
X936256Y618490D01*
X940804D01*
X943389Y619561D01*
X1022151D01*
Y558800D01*
X1022350Y557799D01*
Y556779D01*
X1022740Y555836D01*
X1022940Y554836D01*
X1023506Y553988D01*
X1023897Y553045D01*
X1024618Y552323D01*
X1025185Y551475D01*
X1026033Y550908D01*
X1026755Y550187D01*
X1027698Y549796D01*
X1028546Y549230D01*
X1029546Y549030D01*
X1030489Y548640D01*
X1031509D01*
X1032510Y548441D01*
X1033511Y548640D01*
X1034531D01*
X1034826Y548443D01*
Y454934D01*
X1033556Y454682D01*
X1033390Y455084D01*
X1033191Y456084D01*
X1032624Y456932D01*
X1032233Y457875D01*
X1031512Y458597D01*
X1030945Y459445D01*
X1030097Y460012D01*
X1029375Y460733D01*
X1028432Y461124D01*
X1027584Y461690D01*
X1026584Y461889D01*
X1025641Y462280D01*
X1024621D01*
X1023620Y462479D01*
X1008481D01*
X1007995Y463652D01*
X1010358Y466015D01*
X1013450Y473480D01*
Y481560D01*
X1010358Y489025D01*
X1004645Y494738D01*
X997180Y497830D01*
X989100D01*
X981635Y494738D01*
X975922Y489025D01*
X972830Y481560D01*
Y473480D01*
X975922Y466015D01*
X978285Y463652D01*
X977799Y462479D01*
X943389D01*
X940804Y463550D01*
X936256D01*
X932055Y461810D01*
X928840Y458595D01*
X927100Y454394D01*
Y449846D01*
X928840Y445645D01*
X932055Y442430D01*
X936256Y440690D01*
X940804D01*
X943389Y441761D01*
X1023620D01*
X1024621Y441960D01*
X1025641D01*
X1026584Y442351D01*
X1027584Y442550D01*
X1028432Y443116D01*
X1029375Y443507D01*
X1030097Y444228D01*
X1030945Y444795D01*
X1031512Y445643D01*
X1032233Y446365D01*
X1032624Y447308D01*
X1033191Y448156D01*
X1033390Y449156D01*
X1033556Y449558D01*
X1034826Y449306D01*
Y425197D01*
X1005519Y395890D01*
X1002380D01*
Y391972D01*
X1001423Y390540D01*
X1000536Y386080D01*
X1001423Y381620D01*
X1002380Y380188D01*
Y376270D01*
X1006298D01*
X1007730Y375313D01*
X1012190Y374426D01*
X1016650Y375313D01*
X1018082Y376270D01*
X1022000D01*
Y379409D01*
X1054721Y412129D01*
X1057247Y415910D01*
X1058134Y420370D01*
Y829563D01*
X1071977Y843406D01*
X1073150Y842919D01*
Y842529D01*
X1074697Y838795D01*
X1077555Y835937D01*
X1081289Y834390D01*
X1082040D01*
Y844550D01*
X1083310D01*
Y845820D01*
X1093470D01*
Y846571D01*
X1091923Y850305D01*
X1089065Y853163D01*
X1085331Y854710D01*
X1084940D01*
X1084454Y855883D01*
X1087750Y859179D01*
X1087770Y859183D01*
X1088724Y859821D01*
X1089785Y860260D01*
X1090596Y861072D01*
X1091551Y861709D01*
X1092188Y862664D01*
X1093000Y863475D01*
X1093439Y864536D01*
X1094077Y865490D01*
X1094301Y866616D01*
X1094740Y867676D01*
Y868824D01*
X1094964Y869950D01*
X1094740Y871076D01*
Y872224D01*
X1094301Y873284D01*
X1094077Y874410D01*
X1093439Y875364D01*
X1093000Y876425D01*
X1092188Y877236D01*
X1091551Y878191D01*
X1090596Y878828D01*
X1089785Y879640D01*
X1088724Y880079D01*
X1087770Y880717D01*
X1087750Y880721D01*
X1085724Y882747D01*
X1086124Y884144D01*
X1089785Y885660D01*
X1093000Y888875D01*
X1094740Y893076D01*
Y897624D01*
X1093000Y901825D01*
X1089785Y905040D01*
X1085584Y906780D01*
X1081036D01*
X1076835Y905040D01*
X1076113Y904318D01*
X1074940Y904804D01*
Y912707D01*
X1074053Y917167D01*
X1073405Y918136D01*
X1074004Y919256D01*
X1187481D01*
X1187866Y917986D01*
X1185859Y916645D01*
X1185859Y916645D01*
X1181395Y912181D01*
X1179149Y908820D01*
X1178361Y904856D01*
X1178361Y904856D01*
Y874414D01*
X1178361Y874414D01*
X1179149Y870450D01*
X1181395Y867089D01*
X1185859Y862625D01*
X1185859Y862625D01*
X1189220Y860379D01*
X1193184Y859591D01*
X1205451D01*
X1208036Y858520D01*
X1212584D01*
X1216785Y860260D01*
X1220000Y863475D01*
X1221740Y867676D01*
Y872224D01*
X1220000Y876425D01*
X1216785Y879640D01*
X1212584Y881380D01*
X1208036D01*
X1205451Y880309D01*
X1199079D01*
Y889341D01*
X1200325Y889589D01*
X1200620Y888875D01*
X1203835Y885660D01*
X1208036Y883920D01*
X1212584D01*
X1215169Y884991D01*
X1271071D01*
Y851700D01*
X1269898Y851214D01*
X1267432Y853680D01*
X1264920D01*
Y844550D01*
Y835420D01*
X1267432D01*
X1269898Y837886D01*
X1271071Y837400D01*
Y829550D01*
X1268659D01*
X1268110Y829917D01*
X1263650Y830804D01*
X1210310D01*
X1209184Y830580D01*
X1208036D01*
X1206976Y830141D01*
X1205850Y829917D01*
X1204896Y829279D01*
X1203835Y828840D01*
X1203024Y828028D01*
X1202069Y827391D01*
X1201432Y826436D01*
X1200620Y825625D01*
X1200181Y824564D01*
X1199543Y823610D01*
X1199319Y822484D01*
X1198880Y821424D01*
Y820276D01*
X1198656Y819150D01*
X1198880Y818024D01*
Y816876D01*
X1199319Y815816D01*
X1199543Y814690D01*
X1200181Y813736D01*
X1200620Y812675D01*
X1201432Y811864D01*
X1202069Y810909D01*
X1203024Y810272D01*
X1203835Y809460D01*
X1204896Y809021D01*
X1205850Y808383D01*
X1206976Y808159D01*
X1208036Y807720D01*
X1209184D01*
X1210310Y807496D01*
X1263650D01*
X1268110Y808383D01*
X1268659Y808750D01*
X1271071D01*
Y667819D01*
X1214774D01*
X1210809Y667031D01*
X1207449Y664785D01*
X1207449Y664785D01*
X1202985Y660322D01*
X1200740Y656961D01*
X1199951Y652997D01*
X1199951Y652996D01*
Y360879D01*
X943389D01*
X940804Y361950D01*
X936256D01*
X932055Y360210D01*
X928840Y356995D01*
X927100Y352794D01*
Y348246D01*
X928840Y344045D01*
X932055Y340830D01*
X936256Y339090D01*
X940804D01*
X943389Y340161D01*
X1205846D01*
X1205846Y340161D01*
X1209810Y340950D01*
X1212651Y342847D01*
X1213921Y342205D01*
Y299919D01*
X1124051D01*
X1123565Y301092D01*
X1124658Y302185D01*
X1127750Y309650D01*
Y317730D01*
X1124658Y325195D01*
X1118945Y330908D01*
X1111480Y334000D01*
X1103400D01*
X1095935Y330908D01*
X1090222Y325195D01*
X1087130Y317730D01*
Y309650D01*
X1090222Y302185D01*
X1091315Y301092D01*
X1090829Y299919D01*
X915869D01*
Y365561D01*
X933671D01*
X936256Y364490D01*
X940804D01*
X945005Y366230D01*
X948220Y369445D01*
X949960Y373646D01*
Y378194D01*
X948220Y382395D01*
X945005Y385610D01*
X940804Y387350D01*
X936256D01*
X933671Y386279D01*
X909974D01*
X906010Y385490D01*
X902649Y383245D01*
X902649Y383245D01*
X898185Y378781D01*
X895939Y375420D01*
X895151Y371456D01*
X895151Y371456D01*
Y294024D01*
X895151Y294024D01*
X895747Y291029D01*
X894729Y289759D01*
X889199D01*
Y390961D01*
X933671D01*
X936256Y389890D01*
X940804D01*
X945005Y391630D01*
X948220Y394845D01*
X949960Y399046D01*
Y403594D01*
X948220Y407795D01*
X945005Y411010D01*
X940804Y412750D01*
X936256D01*
X933671Y411679D01*
X883304D01*
X879340Y410891D01*
X875979Y408645D01*
X875979Y408645D01*
X871515Y404181D01*
X869269Y400821D01*
X868481Y396856D01*
X868481Y396856D01*
Y283864D01*
X868481Y283864D01*
X869269Y279900D01*
X871515Y276539D01*
X875979Y272075D01*
X875979Y272075D01*
X879340Y269830D01*
X883304Y269041D01*
X1233786D01*
X1233786Y269041D01*
X1237750Y269830D01*
X1241111Y272075D01*
X1245575Y276539D01*
X1245575Y276539D01*
X1247821Y279900D01*
X1248609Y283864D01*
Y472771D01*
X1249879Y473024D01*
X1252782Y466015D01*
X1258495Y460302D01*
X1265960Y457210D01*
X1274040D01*
X1281505Y460302D01*
X1287218Y466015D01*
X1290310Y473480D01*
Y481560D01*
X1287218Y489025D01*
X1281505Y494738D01*
X1274040Y497830D01*
X1265960D01*
X1258495Y494738D01*
X1252782Y489025D01*
X1249879Y482016D01*
X1248609Y482269D01*
Y623371D01*
X1311256D01*
X1311256Y623371D01*
X1315220Y624160D01*
X1318581Y626405D01*
X1323045Y630869D01*
X1323045Y630869D01*
X1323395Y631392D01*
X1324610Y631023D01*
Y260350D01*
X262890D01*
Y1320800D01*
X281036D01*
D02*
G37*
G36*
X666526Y1050290D02*
X667413Y1045830D01*
X669939Y1042049D01*
X672671Y1040224D01*
X672286Y1038954D01*
X627579D01*
Y1058526D01*
X626791Y1062490D01*
X624545Y1065851D01*
X624545Y1065851D01*
X620081Y1070315D01*
X616721Y1072561D01*
X612756Y1073349D01*
X612756Y1073349D01*
X565804D01*
X561839Y1072561D01*
X558479Y1070315D01*
X558479Y1070315D01*
X554015Y1065851D01*
X551769Y1062490D01*
X550981Y1058526D01*
X550981Y1058526D01*
Y1047529D01*
X549910Y1044944D01*
Y1040396D01*
X551650Y1036195D01*
X554865Y1032980D01*
X559066Y1031240D01*
X563614D01*
X567815Y1032980D01*
X571030Y1036195D01*
X572661Y1040134D01*
X573564Y1040523D01*
X574040Y1040599D01*
Y1040396D01*
X574479Y1039336D01*
X574703Y1038210D01*
X574795Y1038074D01*
X575086Y1036608D01*
Y1028924D01*
X370766D01*
Y1041698D01*
X369879Y1046158D01*
X369794Y1046285D01*
Y1054353D01*
X387971Y1072529D01*
X390497Y1076310D01*
X391384Y1080770D01*
Y1093470D01*
X390497Y1097930D01*
X390130Y1098479D01*
Y1103870D01*
X390114D01*
Y1128806D01*
X666526D01*
Y1050290D01*
D02*
G37*
%LPC*%
G36*
X1272370Y1281915D02*
X1271270D01*
Y1271270D01*
X1281915D01*
Y1272370D01*
X1280101Y1276749D01*
X1276749Y1280101D01*
X1272370Y1281915D01*
D02*
G37*
G36*
X307170Y1274295D02*
X306070D01*
Y1263650D01*
X316715D01*
Y1264750D01*
X314901Y1269129D01*
X311549Y1272481D01*
X307170Y1274295D01*
D02*
G37*
G36*
X1110210Y1287770D02*
X1102130D01*
X1094665Y1284678D01*
X1088952Y1278965D01*
X1085860Y1271500D01*
Y1263420D01*
X1088952Y1255955D01*
X1094665Y1250242D01*
X1102130Y1247150D01*
X1110210D01*
X1117675Y1250242D01*
X1123388Y1255955D01*
X1126480Y1263420D01*
Y1271500D01*
X1123388Y1278965D01*
X1117675Y1284678D01*
X1110210Y1287770D01*
D02*
G37*
G36*
X485370Y1286500D02*
X477290D01*
X469825Y1283408D01*
X464112Y1277695D01*
X461020Y1270230D01*
Y1262150D01*
X464112Y1254685D01*
X469825Y1248972D01*
X477290Y1245880D01*
X485370D01*
X492835Y1248972D01*
X498548Y1254685D01*
X501640Y1262150D01*
Y1270230D01*
X498548Y1277695D01*
X492835Y1283408D01*
X485370Y1286500D01*
D02*
G37*
G36*
X652639Y1273170D02*
X647841D01*
X643409Y1271334D01*
X640016Y1267941D01*
X638180Y1263509D01*
Y1258711D01*
X638586Y1257731D01*
Y1226820D01*
X639473Y1222360D01*
X641999Y1218579D01*
X645780Y1216053D01*
X650240Y1215166D01*
X654700Y1216053D01*
X658481Y1218579D01*
X661007Y1222360D01*
X661894Y1226820D01*
Y1257731D01*
X662300Y1258711D01*
Y1263509D01*
X660464Y1267941D01*
X657071Y1271334D01*
X652639Y1273170D01*
D02*
G37*
G36*
X321540Y1123940D02*
X313460D01*
X305995Y1120848D01*
X300282Y1115135D01*
X297190Y1107670D01*
Y1099590D01*
X300282Y1092125D01*
X305995Y1086412D01*
X313460Y1083320D01*
X321540D01*
X329005Y1086412D01*
X334718Y1092125D01*
X337810Y1099590D01*
Y1107670D01*
X334718Y1115135D01*
X329005Y1120848D01*
X321540Y1123940D01*
D02*
G37*
G36*
X998450Y1122670D02*
X990370D01*
X982905Y1119578D01*
X977192Y1113865D01*
X974100Y1106400D01*
Y1098320D01*
X977192Y1090855D01*
X982905Y1085142D01*
X990370Y1082050D01*
X998450D01*
X1005915Y1085142D01*
X1011628Y1090855D01*
X1014720Y1098320D01*
Y1106400D01*
X1011628Y1113865D01*
X1005915Y1119578D01*
X998450Y1122670D01*
D02*
G37*
G36*
X940726Y1093150D02*
X931254D01*
X922503Y1089525D01*
X915805Y1082827D01*
X912180Y1074076D01*
Y1064604D01*
X915805Y1055853D01*
X922503Y1049155D01*
X931254Y1045530D01*
X940726D01*
X949477Y1049155D01*
X956175Y1055853D01*
X959800Y1064604D01*
Y1074076D01*
X956175Y1082827D01*
X949477Y1089525D01*
X940726Y1093150D01*
D02*
G37*
G36*
X731176D02*
X721704D01*
X712953Y1089525D01*
X706255Y1082827D01*
X702630Y1074076D01*
Y1064604D01*
X706255Y1055853D01*
X712953Y1049155D01*
X721704Y1045530D01*
X731176D01*
X739927Y1049155D01*
X746625Y1055853D01*
X750250Y1064604D01*
Y1074076D01*
X746625Y1082827D01*
X739927Y1089525D01*
X731176Y1093150D01*
D02*
G37*
G36*
X367459Y1000480D02*
X358981D01*
X351149Y997236D01*
X345154Y991241D01*
X341910Y983409D01*
Y974931D01*
X345154Y967099D01*
X351149Y961104D01*
X358981Y957860D01*
X367459D01*
X375291Y961104D01*
X381286Y967099D01*
X384530Y974931D01*
Y983409D01*
X381286Y991241D01*
X375291Y997236D01*
X367459Y1000480D01*
D02*
G37*
G36*
X538214Y927100D02*
X533666D01*
X529465Y925360D01*
X526250Y922145D01*
X524510Y917944D01*
Y913396D01*
X526250Y909195D01*
X529465Y905980D01*
X533666Y904240D01*
X538214D01*
X542415Y905980D01*
X545630Y909195D01*
X547370Y913396D01*
Y917944D01*
X545630Y922145D01*
X542415Y925360D01*
X538214Y927100D01*
D02*
G37*
G36*
X512814D02*
X508266D01*
X504065Y925360D01*
X500850Y922145D01*
X499110Y917944D01*
Y913396D01*
X500850Y909195D01*
X504065Y905980D01*
X508266Y904240D01*
X512814D01*
X517015Y905980D01*
X520230Y909195D01*
X521970Y913396D01*
Y917944D01*
X520230Y922145D01*
X517015Y925360D01*
X512814Y927100D01*
D02*
G37*
G36*
X487414D02*
X482866D01*
X478665Y925360D01*
X475450Y922145D01*
X473710Y917944D01*
Y913396D01*
X475450Y909195D01*
X478665Y905980D01*
X482866Y904240D01*
X487414D01*
X491615Y905980D01*
X494830Y909195D01*
X496570Y913396D01*
Y917944D01*
X494830Y922145D01*
X491615Y925360D01*
X487414Y927100D01*
D02*
G37*
G36*
X462014D02*
X457466D01*
X453265Y925360D01*
X450050Y922145D01*
X448310Y917944D01*
Y913396D01*
X450050Y909195D01*
X453265Y905980D01*
X457466Y904240D01*
X462014D01*
X466215Y905980D01*
X469430Y909195D01*
X471170Y913396D01*
Y917944D01*
X469430Y922145D01*
X466215Y925360D01*
X462014Y927100D01*
D02*
G37*
G36*
X436614D02*
X432066D01*
X427865Y925360D01*
X424650Y922145D01*
X422910Y917944D01*
Y913396D01*
X424650Y909195D01*
X427865Y905980D01*
X432066Y904240D01*
X436614D01*
X440815Y905980D01*
X444030Y909195D01*
X445770Y913396D01*
Y917944D01*
X444030Y922145D01*
X440815Y925360D01*
X436614Y927100D01*
D02*
G37*
G36*
X411214D02*
X406666D01*
X402465Y925360D01*
X399250Y922145D01*
X397510Y917944D01*
Y913396D01*
X399250Y909195D01*
X402465Y905980D01*
X406666Y904240D01*
X411214D01*
X415415Y905980D01*
X418630Y909195D01*
X420370Y913396D01*
Y917944D01*
X418630Y922145D01*
X415415Y925360D01*
X411214Y927100D01*
D02*
G37*
G36*
X385814D02*
X381266D01*
X377065Y925360D01*
X373850Y922145D01*
X372110Y917944D01*
Y913396D01*
X373850Y909195D01*
X377065Y905980D01*
X381266Y904240D01*
X385814D01*
X390015Y905980D01*
X393230Y909195D01*
X394970Y913396D01*
Y917944D01*
X393230Y922145D01*
X390015Y925360D01*
X385814Y927100D01*
D02*
G37*
G36*
X1212331Y854710D02*
X1211580D01*
Y845820D01*
X1220470D01*
Y846571D01*
X1218923Y850305D01*
X1216065Y853163D01*
X1212331Y854710D01*
D02*
G37*
G36*
X1262380Y853680D02*
X1259868D01*
X1254520Y848332D01*
Y845820D01*
X1262380D01*
Y853680D01*
D02*
G37*
G36*
X1209040Y854710D02*
X1208289D01*
X1204555Y853163D01*
X1201697Y850305D01*
X1200150Y846571D01*
Y845820D01*
X1209040D01*
Y854710D01*
D02*
G37*
G36*
X1262380Y843280D02*
X1254520D01*
Y840768D01*
X1259868Y835420D01*
X1262380D01*
Y843280D01*
D02*
G37*
G36*
X1220470D02*
X1211580D01*
Y834390D01*
X1212331D01*
X1216065Y835937D01*
X1218923Y838795D01*
X1220470Y842529D01*
Y843280D01*
D02*
G37*
G36*
X1209040D02*
X1200150D01*
Y842529D01*
X1201697Y838795D01*
X1204555Y835937D01*
X1208289Y834390D01*
X1209040D01*
Y843280D01*
D02*
G37*
G36*
X1093470D02*
X1084580D01*
Y834390D01*
X1085331D01*
X1089065Y835937D01*
X1091923Y838795D01*
X1093470Y842529D01*
Y843280D01*
D02*
G37*
G36*
X358140Y927324D02*
X353680Y926437D01*
X349899Y923911D01*
X347373Y920130D01*
X346486Y915670D01*
Y842697D01*
X347373Y838238D01*
X348627Y836361D01*
X348643Y836280D01*
X351169Y832499D01*
X354950Y829973D01*
X359410Y829086D01*
X363870Y829973D01*
X367651Y832499D01*
X370177Y836280D01*
X371064Y840740D01*
Y841427D01*
X370177Y845887D01*
X369794Y846460D01*
Y915670D01*
X368907Y920130D01*
X366381Y923911D01*
X362600Y926437D01*
X358140Y927324D01*
D02*
G37*
G36*
X1085331Y829310D02*
X1084580D01*
Y820420D01*
X1093470D01*
Y821171D01*
X1091923Y824905D01*
X1089065Y827763D01*
X1085331Y829310D01*
D02*
G37*
G36*
X1082040D02*
X1081289D01*
X1077555Y827763D01*
X1074697Y824905D01*
X1073150Y821171D01*
Y820420D01*
X1082040D01*
Y829310D01*
D02*
G37*
G36*
X1093470Y817880D02*
X1084580D01*
Y808990D01*
X1085331D01*
X1089065Y810537D01*
X1091923Y813395D01*
X1093470Y817129D01*
Y817880D01*
D02*
G37*
G36*
X1082040D02*
X1073150D01*
Y817129D01*
X1074697Y813395D01*
X1077555Y810537D01*
X1081289Y808990D01*
X1082040D01*
Y817880D01*
D02*
G37*
G36*
X940804Y819150D02*
X936256D01*
X932055Y817410D01*
X928840Y814195D01*
X927100Y809994D01*
Y805446D01*
X928840Y801245D01*
X932055Y798030D01*
X936256Y796290D01*
X940804D01*
X945005Y798030D01*
X948220Y801245D01*
X949960Y805446D01*
Y809994D01*
X948220Y814195D01*
X945005Y817410D01*
X940804Y819150D01*
D02*
G37*
G36*
Y793750D02*
X936256D01*
X932055Y792010D01*
X928840Y788795D01*
X927100Y784594D01*
Y780046D01*
X928840Y775845D01*
X932055Y772630D01*
X936256Y770890D01*
X940804D01*
X945005Y772630D01*
X948220Y775845D01*
X949960Y780046D01*
Y784594D01*
X948220Y788795D01*
X945005Y792010D01*
X940804Y793750D01*
D02*
G37*
G36*
X849884Y839161D02*
X848883Y838962D01*
X847863D01*
X846920Y838571D01*
X845920Y838372D01*
X845071Y837806D01*
X844129Y837415D01*
X843407Y836694D01*
X842559Y836127D01*
X841992Y835279D01*
X841271Y834557D01*
X840880Y833615D01*
X840313Y832766D01*
X840115Y831766D01*
X839724Y830823D01*
Y829803D01*
X839525Y828802D01*
Y761384D01*
X839525Y761384D01*
X840313Y757420D01*
X842559Y754059D01*
X847023Y749595D01*
X847023Y749595D01*
X850384Y747349D01*
X854348Y746561D01*
X933671D01*
X936256Y745490D01*
X940804D01*
X945005Y747230D01*
X948220Y750445D01*
X949960Y754646D01*
Y759194D01*
X948220Y763395D01*
X945005Y766610D01*
X940804Y768350D01*
X936256D01*
X933671Y767279D01*
X860243D01*
Y828802D01*
X860044Y829803D01*
Y830823D01*
X859653Y831766D01*
X859454Y832766D01*
X858888Y833615D01*
X858497Y834557D01*
X857776Y835279D01*
X857209Y836127D01*
X856361Y836694D01*
X855639Y837415D01*
X854697Y837806D01*
X853848Y838372D01*
X852848Y838571D01*
X851905Y838962D01*
X850885D01*
X849884Y839161D01*
D02*
G37*
G36*
X981710Y785059D02*
X980709Y784860D01*
X979689D01*
X978746Y784470D01*
X977746Y784270D01*
X976898Y783704D01*
X975955Y783313D01*
X975233Y782592D01*
X974385Y782025D01*
X973818Y781177D01*
X973097Y780455D01*
X972706Y779512D01*
X972140Y778664D01*
X971941Y777664D01*
X971550Y776721D01*
Y775701D01*
X971351Y774700D01*
Y741879D01*
X943389D01*
X940804Y742950D01*
X936256D01*
X932055Y741210D01*
X928840Y737995D01*
X927100Y733794D01*
Y729246D01*
X928840Y725045D01*
X932055Y721830D01*
X936256Y720090D01*
X940804D01*
X943389Y721161D01*
X977246D01*
X977246Y721161D01*
X981210Y721949D01*
X984571Y724195D01*
X989035Y728659D01*
X989035Y728659D01*
X991281Y732020D01*
X992069Y735984D01*
Y774700D01*
X991870Y775701D01*
Y776721D01*
X991479Y777664D01*
X991281Y778664D01*
X990714Y779512D01*
X990323Y780455D01*
X989602Y781177D01*
X989035Y782025D01*
X988187Y782592D01*
X987465Y783313D01*
X986523Y783704D01*
X985674Y784270D01*
X984674Y784470D01*
X983731Y784860D01*
X982711D01*
X981710Y785059D01*
D02*
G37*
G36*
X349222Y725410D02*
X346710D01*
Y717550D01*
X354570D01*
Y720062D01*
X349222Y725410D01*
D02*
G37*
G36*
X344170D02*
X341658D01*
X336310Y720062D01*
Y717550D01*
X344170D01*
Y725410D01*
D02*
G37*
G36*
X354570Y715010D02*
X346710D01*
Y707150D01*
X349222D01*
X354570Y712498D01*
Y715010D01*
D02*
G37*
G36*
X344170D02*
X336310D01*
Y712498D01*
X341658Y707150D01*
X344170D01*
Y715010D01*
D02*
G37*
G36*
X815848Y839161D02*
X814847Y838962D01*
X813827D01*
X812884Y838571D01*
X811884Y838372D01*
X811036Y837806D01*
X810093Y837415D01*
X809371Y836694D01*
X808523Y836127D01*
X807956Y835279D01*
X807235Y834557D01*
X806844Y833615D01*
X806277Y832766D01*
X806078Y831766D01*
X805688Y830823D01*
Y829803D01*
X805489Y828802D01*
Y710584D01*
X805489Y710584D01*
X806277Y706619D01*
X808523Y703259D01*
X812987Y698795D01*
X812987Y698795D01*
X816348Y696550D01*
X820312Y695761D01*
X933671D01*
X936256Y694690D01*
X940804D01*
X945005Y696430D01*
X948220Y699645D01*
X949960Y703846D01*
Y708394D01*
X948220Y712595D01*
X945005Y715810D01*
X940804Y717550D01*
X936256D01*
X933671Y716479D01*
X826207D01*
Y828802D01*
X826008Y829803D01*
Y830823D01*
X825618Y831766D01*
X825418Y832766D01*
X824852Y833615D01*
X824461Y834557D01*
X823740Y835279D01*
X823173Y836127D01*
X822325Y836694D01*
X821603Y837415D01*
X820660Y837806D01*
X819812Y838372D01*
X818812Y838571D01*
X817869Y838962D01*
X816849D01*
X815848Y839161D01*
D02*
G37*
G36*
X998220Y722829D02*
X997219Y722630D01*
X996199D01*
X995256Y722240D01*
X994256Y722040D01*
X993408Y721474D01*
X992465Y721083D01*
X991743Y720362D01*
X990895Y719795D01*
X990328Y718947D01*
X989607Y718225D01*
X989216Y717282D01*
X988650Y716434D01*
X988450Y715434D01*
X988060Y714491D01*
Y713471D01*
X987861Y712470D01*
X988060Y711469D01*
Y710449D01*
X988450Y709506D01*
X988650Y708506D01*
X988833Y708231D01*
Y707906D01*
X988833Y707906D01*
X989131Y706408D01*
Y665679D01*
X943389D01*
X940804Y666750D01*
X936256D01*
X932055Y665010D01*
X928840Y661795D01*
X927100Y657594D01*
Y653046D01*
X928840Y648845D01*
X932055Y645630D01*
X936256Y643890D01*
X940804D01*
X943389Y644961D01*
X995026D01*
X995026Y644961D01*
X998990Y645750D01*
X1002351Y647995D01*
X1006815Y652459D01*
X1006815Y652459D01*
X1009061Y655819D01*
X1009849Y659784D01*
Y707608D01*
X1009849Y707608D01*
X1009551Y709106D01*
Y711498D01*
X1009551Y711498D01*
X1008763Y715462D01*
X1006517Y718823D01*
X1006517Y718823D01*
X1005545Y719795D01*
X1004697Y720362D01*
X1003975Y721083D01*
X1003033Y721474D01*
X1002184Y722040D01*
X1001184Y722240D01*
X1000241Y722630D01*
X999221D01*
X998220Y722829D01*
D02*
G37*
G36*
X302700Y650640D02*
X295910D01*
X289120D01*
Y649097D01*
X289574Y648643D01*
X289088Y647470D01*
X287850D01*
Y631350D01*
X303970D01*
Y647470D01*
X302732D01*
X302246Y648643D01*
X302700Y649097D01*
Y650640D01*
D02*
G37*
G36*
X940804Y615950D02*
X936256D01*
X932055Y614210D01*
X928840Y610995D01*
X927100Y606794D01*
Y602246D01*
X928840Y598045D01*
X932055Y594830D01*
X936256Y593090D01*
X940804D01*
X945005Y594830D01*
X948220Y598045D01*
X949960Y602246D01*
Y606794D01*
X948220Y610995D01*
X945005Y614210D01*
X940804Y615950D01*
D02*
G37*
G36*
X1111480Y610860D02*
X1103400D01*
X1095935Y607768D01*
X1090222Y602055D01*
X1087130Y594590D01*
Y586510D01*
X1090222Y579045D01*
X1095935Y573332D01*
X1103400Y570240D01*
X1111480D01*
X1118945Y573332D01*
X1124658Y579045D01*
X1127750Y586510D01*
Y594590D01*
X1124658Y602055D01*
X1118945Y607768D01*
X1111480Y610860D01*
D02*
G37*
G36*
X484100D02*
X476020D01*
X468555Y607768D01*
X462842Y602055D01*
X459750Y594590D01*
Y586510D01*
X462842Y579045D01*
X468555Y573332D01*
X476020Y570240D01*
X484100D01*
X491565Y573332D01*
X497278Y579045D01*
X500370Y586510D01*
Y594590D01*
X497278Y602055D01*
X491565Y607768D01*
X484100Y610860D01*
D02*
G37*
G36*
X940804Y590550D02*
X936256D01*
X932055Y588810D01*
X928840Y585595D01*
X927100Y581394D01*
Y576846D01*
X928840Y572645D01*
X932055Y569430D01*
X936256Y567690D01*
X940804D01*
X945005Y569430D01*
X948220Y572645D01*
X949960Y576846D01*
Y581394D01*
X948220Y585595D01*
X945005Y588810D01*
X940804Y590550D01*
D02*
G37*
G36*
Y565150D02*
X936256D01*
X932055Y563410D01*
X928840Y560195D01*
X927100Y555994D01*
Y551446D01*
X928840Y547245D01*
X932055Y544030D01*
X936256Y542290D01*
X940804D01*
X945005Y544030D01*
X948220Y547245D01*
X949960Y551446D01*
Y555994D01*
X948220Y560195D01*
X945005Y563410D01*
X940804Y565150D01*
D02*
G37*
G36*
Y539750D02*
X936256D01*
X932055Y538010D01*
X928840Y534795D01*
X927100Y530594D01*
Y526046D01*
X928840Y521845D01*
X932055Y518630D01*
X936256Y516890D01*
X940804D01*
X945005Y518630D01*
X948220Y521845D01*
X949960Y526046D01*
Y530594D01*
X948220Y534795D01*
X945005Y538010D01*
X940804Y539750D01*
D02*
G37*
G36*
Y514350D02*
X936256D01*
X932055Y512610D01*
X928840Y509395D01*
X927100Y505194D01*
Y500646D01*
X928840Y496445D01*
X932055Y493230D01*
X936256Y491490D01*
X940804D01*
X945005Y493230D01*
X948220Y496445D01*
X949960Y500646D01*
Y505194D01*
X948220Y509395D01*
X945005Y512610D01*
X940804Y514350D01*
D02*
G37*
G36*
Y488950D02*
X936256D01*
X932055Y487210D01*
X928840Y483995D01*
X927100Y479794D01*
Y475246D01*
X928840Y471045D01*
X932055Y467830D01*
X936256Y466090D01*
X940804D01*
X945005Y467830D01*
X948220Y471045D01*
X949960Y475246D01*
Y479794D01*
X948220Y483995D01*
X945005Y487210D01*
X940804Y488950D01*
D02*
G37*
G36*
X322810Y497830D02*
X314730D01*
X307265Y494738D01*
X301552Y489025D01*
X298460Y481560D01*
Y473480D01*
X301552Y466015D01*
X307265Y460302D01*
X314730Y457210D01*
X322810D01*
X330275Y460302D01*
X335988Y466015D01*
X339080Y473480D01*
Y481560D01*
X335988Y489025D01*
X330275Y494738D01*
X322810Y497830D01*
D02*
G37*
G36*
X1065727Y394620D02*
X1063460D01*
Y387350D01*
X1070730D01*
Y389617D01*
X1065727Y394620D01*
D02*
G37*
G36*
X1060920D02*
X1058652D01*
X1053650Y389617D01*
Y387350D01*
X1060920D01*
Y394620D01*
D02*
G37*
G36*
X1070730Y384810D02*
X1063460D01*
Y377540D01*
X1065727D01*
X1070730Y382543D01*
Y384810D01*
D02*
G37*
G36*
X1060920D02*
X1053650D01*
Y382543D01*
X1058652Y377540D01*
X1060920D01*
Y384810D01*
D02*
G37*
G36*
X303360Y362435D02*
X302260D01*
Y351790D01*
X312905D01*
Y352890D01*
X311091Y357269D01*
X307739Y360621D01*
X303360Y362435D01*
D02*
G37*
G36*
X1293960D02*
X1292860D01*
Y351790D01*
X1303505D01*
Y352890D01*
X1301691Y357269D01*
X1298339Y360621D01*
X1293960Y362435D01*
D02*
G37*
G36*
X299720D02*
X298620D01*
X294241Y360621D01*
X290889Y357269D01*
X289075Y352890D01*
Y351790D01*
X299720D01*
Y362435D01*
D02*
G37*
G36*
X1290320D02*
X1289220D01*
X1284841Y360621D01*
X1281489Y357269D01*
X1279675Y352890D01*
Y351790D01*
X1290320D01*
Y362435D01*
D02*
G37*
G36*
X940551Y335280D02*
X939800D01*
Y326390D01*
X948690D01*
Y327141D01*
X947143Y330875D01*
X944285Y333733D01*
X940551Y335280D01*
D02*
G37*
G36*
X937260D02*
X936509D01*
X932775Y333733D01*
X929917Y330875D01*
X928370Y327141D01*
Y326390D01*
X937260D01*
Y335280D01*
D02*
G37*
G36*
X948690Y323850D02*
X939800D01*
Y314960D01*
X940551D01*
X944285Y316507D01*
X947143Y319365D01*
X948690Y323099D01*
Y323850D01*
D02*
G37*
G36*
X937260D02*
X928370D01*
Y323099D01*
X929917Y319365D01*
X932775Y316507D01*
X936509Y314960D01*
X937260D01*
Y323850D01*
D02*
G37*
G36*
X1303505Y349250D02*
X1291590D01*
X1279675D01*
Y348150D01*
X1281489Y343771D01*
X1284841Y340419D01*
X1287796Y339195D01*
Y337820D01*
X1284121Y336298D01*
X1280412Y332589D01*
X1278405Y327743D01*
Y322497D01*
X1280412Y317651D01*
X1283889Y314175D01*
X1283560Y312905D01*
X1278405D01*
Y286535D01*
X1304775D01*
Y312905D01*
X1299621D01*
X1299291Y314175D01*
X1302768Y317651D01*
X1304775Y322497D01*
Y327743D01*
X1302768Y332589D01*
X1299059Y336298D01*
X1295383Y337820D01*
Y339195D01*
X1298339Y340419D01*
X1301691Y343771D01*
X1303505Y348150D01*
Y349250D01*
D02*
G37*
G36*
X408912Y1102600D02*
X406400D01*
Y1094740D01*
X414260D01*
Y1097252D01*
X408912Y1102600D01*
D02*
G37*
G36*
X403860D02*
X401348D01*
X396000Y1097252D01*
Y1094740D01*
X403860D01*
Y1102600D01*
D02*
G37*
G36*
X414260Y1092200D02*
X406400D01*
Y1084340D01*
X408912D01*
X414260Y1089688D01*
Y1092200D01*
D02*
G37*
G36*
X403860D02*
X396000D01*
Y1089688D01*
X401348Y1084340D01*
X403860D01*
Y1092200D01*
D02*
G37*
G36*
X598400Y1122670D02*
X590320D01*
X582855Y1119578D01*
X577142Y1113865D01*
X574050Y1106400D01*
Y1098320D01*
X577142Y1090855D01*
X582855Y1085142D01*
X590320Y1082050D01*
X598400D01*
X605865Y1085142D01*
X611578Y1090855D01*
X614670Y1098320D01*
Y1106400D01*
X611578Y1113865D01*
X605865Y1119578D01*
X598400Y1122670D01*
D02*
G37*
G36*
X538214Y1054100D02*
X533666D01*
X529465Y1052360D01*
X526250Y1049145D01*
X524510Y1044944D01*
Y1040396D01*
X526250Y1036195D01*
X529465Y1032980D01*
X533666Y1031240D01*
X538214D01*
X542415Y1032980D01*
X545630Y1036195D01*
X547370Y1040396D01*
Y1044944D01*
X545630Y1049145D01*
X542415Y1052360D01*
X538214Y1054100D01*
D02*
G37*
G36*
X512814D02*
X508266D01*
X504065Y1052360D01*
X500850Y1049145D01*
X499110Y1044944D01*
Y1040396D01*
X500850Y1036195D01*
X504065Y1032980D01*
X508266Y1031240D01*
X512814D01*
X517015Y1032980D01*
X520230Y1036195D01*
X521970Y1040396D01*
Y1044944D01*
X520230Y1049145D01*
X517015Y1052360D01*
X512814Y1054100D01*
D02*
G37*
G36*
X487414D02*
X482866D01*
X478665Y1052360D01*
X475450Y1049145D01*
X473710Y1044944D01*
Y1040396D01*
X475450Y1036195D01*
X478665Y1032980D01*
X482866Y1031240D01*
X487414D01*
X491615Y1032980D01*
X494830Y1036195D01*
X496570Y1040396D01*
Y1044944D01*
X494830Y1049145D01*
X491615Y1052360D01*
X487414Y1054100D01*
D02*
G37*
G36*
X462014D02*
X457466D01*
X453265Y1052360D01*
X450050Y1049145D01*
X448310Y1044944D01*
Y1040396D01*
X450050Y1036195D01*
X453265Y1032980D01*
X457466Y1031240D01*
X462014D01*
X466215Y1032980D01*
X469430Y1036195D01*
X471170Y1040396D01*
Y1044944D01*
X469430Y1049145D01*
X466215Y1052360D01*
X462014Y1054100D01*
D02*
G37*
G36*
X436614D02*
X432066D01*
X427865Y1052360D01*
X424650Y1049145D01*
X422910Y1044944D01*
Y1040396D01*
X424650Y1036195D01*
X427865Y1032980D01*
X432066Y1031240D01*
X436614D01*
X440815Y1032980D01*
X444030Y1036195D01*
X445770Y1040396D01*
Y1044944D01*
X444030Y1049145D01*
X440815Y1052360D01*
X436614Y1054100D01*
D02*
G37*
G36*
X411214D02*
X406666D01*
X402465Y1052360D01*
X399250Y1049145D01*
X397510Y1044944D01*
Y1040396D01*
X399250Y1036195D01*
X402465Y1032980D01*
X406666Y1031240D01*
X411214D01*
X415415Y1032980D01*
X418630Y1036195D01*
X420370Y1040396D01*
Y1044944D01*
X418630Y1049145D01*
X415415Y1052360D01*
X411214Y1054100D01*
D02*
G37*
G36*
X385814D02*
X381266D01*
X377065Y1052360D01*
X373850Y1049145D01*
X372110Y1044944D01*
Y1040396D01*
X373850Y1036195D01*
X377065Y1032980D01*
X381266Y1031240D01*
X385814D01*
X390015Y1032980D01*
X393230Y1036195D01*
X394970Y1040396D01*
Y1044944D01*
X393230Y1049145D01*
X390015Y1052360D01*
X385814Y1054100D01*
D02*
G37*
%LPD*%
D29*
X378460Y1093470D02*
Y1134508D01*
X296110Y689610D02*
X345440D01*
X346075Y690245D01*
X428862Y807720D02*
X551180D01*
X422910Y801768D02*
X428862Y807720D01*
X422910Y774700D02*
Y801768D01*
Y696832D02*
Y774700D01*
X328532Y806450D02*
X391160D01*
X422910Y774700D01*
X322580Y812402D02*
X328532Y806450D01*
X322580Y812402D02*
Y1059180D01*
X356870Y1093470D02*
X378460D01*
X322580Y1059180D02*
X356870Y1093470D01*
X378460D02*
X379730D01*
X358140Y1042670D02*
Y1059180D01*
X379730Y1080770D02*
Y1093470D01*
X358140Y1059180D02*
X379730Y1080770D01*
X586740Y554592D02*
Y857250D01*
X535940Y542688D02*
X541892Y548640D01*
X580788D01*
X535940Y331072D02*
Y542688D01*
X580788Y548640D02*
X586740Y554592D01*
X345440Y690880D02*
X416958D01*
X359112Y1023222D02*
Y1041698D01*
X586740Y1023222D02*
Y1037808D01*
X365064Y1017270D02*
X580788D01*
X586740Y1023222D01*
X359112D02*
X365064Y1017270D01*
X585470Y858520D02*
X586740Y857250D01*
X585470Y858520D02*
Y915670D01*
X416958Y690880D02*
X422910Y696832D01*
X359410Y840740D02*
Y841427D01*
X358140Y842697D02*
X359410Y841427D01*
X358140Y842697D02*
Y915670D01*
X678180Y1050290D02*
Y1134508D01*
X384412Y1140460D02*
X672228D01*
X378460Y1134508D02*
X384412Y1140460D01*
X672228D02*
X678180Y1134508D01*
X1080963Y869950D02*
X1082040D01*
X1063286Y888704D02*
X1082040Y869950D01*
X1063286Y888704D02*
Y912707D01*
X1082040Y869950D02*
X1083310D01*
X1046480Y834390D02*
X1081016Y868926D01*
X1080963Y869950D02*
X1081016Y869898D01*
X1046480Y420370D02*
Y834390D01*
X1081016Y868926D02*
Y869898D01*
X789940Y862728D02*
X795892Y868680D01*
X1078230D01*
X789940Y331072D02*
Y862728D01*
X678180Y325120D02*
X783988D01*
X789940Y331072D01*
X541892Y325120D02*
X678180D01*
X535940Y331072D02*
X541892Y325120D01*
X1242643Y929640D02*
X1243330D01*
X1241373Y930910D02*
X1242643Y929640D01*
X1038860Y915162D02*
X1054608Y930910D01*
X1241373D01*
X1012190Y386080D02*
X1046480Y420370D01*
X739140Y865742D02*
Y913130D01*
X733188Y859790D02*
X739140Y865742D01*
X666750Y859790D02*
X733188D01*
X739140Y913130D02*
Y960120D01*
X675640Y1261110D02*
Y1292860D01*
X650240Y1226820D02*
Y1261110D01*
X586442Y1038106D02*
Y1041698D01*
X585470Y1042670D02*
X586442Y1041698D01*
Y1038106D02*
X586740Y1037808D01*
X678180Y919082D02*
Y960120D01*
Y919082D02*
X684132Y913130D01*
X713740D01*
X633730Y865049D02*
Y992268D01*
X611448Y859098D02*
X627778D01*
X633730Y865049D01*
X639682Y998220D02*
X1034178D01*
X633730Y992268D02*
X639682Y998220D01*
X610870Y858520D02*
X611448Y859098D01*
X295910Y689410D02*
X296110Y689610D01*
X604520Y807720D02*
X678180D01*
X358140Y1042670D02*
X359112Y1041698D01*
X1238894Y1270000D02*
X1270000D01*
X1232943Y1264048D02*
X1238894Y1270000D01*
X1232943Y963532D02*
Y1264048D01*
X1226991Y957580D02*
X1232943Y963532D01*
X1040130D02*
X1046082Y957580D01*
X1040130Y963532D02*
Y992268D01*
X1046082Y957580D02*
X1226991D01*
X1034178Y998220D02*
X1040130Y992268D01*
X1062990Y982980D02*
Y1255158D01*
X1057038Y1261110D02*
X1062990Y1255158D01*
X1062895Y913098D02*
X1063286Y912707D01*
X713740Y913130D02*
Y960120D01*
X962660Y1261110D02*
X1057038D01*
X787654Y915162D02*
X1038860D01*
X1210310Y819150D02*
X1263650D01*
D30*
X1290320Y661924D02*
Y890886D01*
X1210310Y895350D02*
X1285856D01*
X1214774Y657460D02*
X1285856D01*
Y895350D02*
X1290320Y890886D01*
X1285856Y657460D02*
X1290320Y661924D01*
X1228744Y646430D02*
X1298556D01*
X1303020Y650894D02*
Y904856D01*
X1298556Y646430D02*
X1303020Y650894D01*
X1193184Y909320D02*
X1298556D01*
X1303020Y904856D01*
X557530Y527050D02*
X558165Y527685D01*
X677545D01*
X678180Y528320D01*
X548535Y676910D02*
X549805Y675640D01*
X551180D01*
X295910Y676910D02*
X548535D01*
X561340Y1058526D02*
X565804Y1062990D01*
X561340Y1042670D02*
Y1058526D01*
X565804Y1062990D02*
X612756D01*
X617220Y1033059D02*
Y1058526D01*
X612756Y1062990D02*
X617220Y1058526D01*
X621684Y1028595D02*
X1016000D01*
X617220Y1033059D02*
X621684Y1028595D01*
X938530Y452120D02*
X1023620D01*
X833120Y282594D02*
Y422256D01*
X837584Y426720D01*
X938530D01*
X828656Y278130D02*
X833120Y282594D01*
X310542Y278130D02*
X828656D01*
X395878Y295294D02*
X400341Y290830D01*
X814686D02*
X819150Y295294D01*
X400341Y290830D02*
X814686D01*
X395878Y295294D02*
Y659947D01*
X819150Y295294D02*
Y676256D01*
X306078Y282594D02*
X310542Y278130D01*
X300990Y299720D02*
X306078Y294632D01*
Y282594D02*
Y294632D01*
X763270Y843280D02*
Y958850D01*
X654704Y826770D02*
X695306D01*
X699770Y354984D02*
Y822306D01*
X678180Y350520D02*
X695306D01*
Y826770D02*
X699770Y822306D01*
X695306Y350520D02*
X699770Y354984D01*
X281940Y1216044D02*
X286404Y1211580D01*
Y1310640D02*
X1311256D01*
X281940Y1306176D02*
X286404Y1310640D01*
Y1211580D02*
X304800D01*
X281940Y1216044D02*
Y1306176D01*
X621684Y1013460D02*
X1036936D01*
X565804Y949960D02*
X612756D01*
X617220Y954424D02*
Y1008996D01*
X612756Y949960D02*
X617220Y954424D01*
Y1008996D02*
X621684Y1013460D01*
X1041400Y1017924D02*
Y1232516D01*
X1036936Y1013460D02*
X1041400Y1017924D01*
X1298556Y944880D02*
X1303020Y949344D01*
Y1214736D01*
X1298556Y1219200D02*
X1303020Y1214736D01*
X1270000Y1219200D02*
X1298556D01*
X998220Y944880D02*
X1298556D01*
X1315720Y638194D02*
Y1306176D01*
X1242714Y633730D02*
X1311256D01*
Y1310640D02*
X1315720Y1306176D01*
X1311256Y633730D02*
X1315720Y638194D01*
X938530Y731520D02*
X977246D01*
X763270Y958850D02*
X764540Y960120D01*
X999192Y707906D02*
Y711498D01*
X999490Y659784D02*
Y707608D01*
X938530Y655320D02*
X995026D01*
X999490Y659784D01*
X998220Y712470D02*
X999192Y711498D01*
Y707906D02*
X999490Y707608D01*
X981710Y735984D02*
Y774700D01*
X815848Y710584D02*
Y828802D01*
X849884Y761384D02*
Y828802D01*
X295910Y664410D02*
X391414D01*
X395878Y659947D01*
X916324Y1236980D02*
X1036936D01*
X1041400Y1232516D01*
X654704Y979170D02*
X810876D01*
X650240Y974706D02*
X654704Y979170D01*
X810876D02*
X815340Y974706D01*
X650240Y831234D02*
Y974706D01*
X815340Y960120D02*
Y974706D01*
X561340Y945496D02*
X565804Y949960D01*
X561340Y915670D02*
Y945496D01*
X650240Y831234D02*
X654704Y826770D01*
X911860Y1241444D02*
X916324Y1236980D01*
X911860Y1241444D02*
Y1261110D01*
X977246Y731520D02*
X981710Y735984D01*
X1032510Y558800D02*
Y625456D01*
X938530Y629920D02*
X1028046D01*
X1032510Y625456D01*
X1210310Y652997D02*
X1214774Y657460D01*
X1210310Y354984D02*
Y652997D01*
X938530Y350520D02*
X1205846D01*
X1210310Y354984D01*
X1224280Y294024D02*
Y641966D01*
X1228744Y646430D01*
X1219816Y289560D02*
X1224280Y294024D01*
X909974Y289560D02*
X1219816D01*
X883304Y279400D02*
X1233786D01*
X1238250Y283864D01*
Y629266D01*
X1242714Y633730D01*
X823614Y680720D02*
X938530D01*
X819150Y676256D02*
X823614Y680720D01*
X883304Y401320D02*
X938530D01*
X878840Y396856D02*
X883304Y401320D01*
X878840Y283864D02*
Y396856D01*
Y283864D02*
X883304Y279400D01*
X909974Y375920D02*
X938530D01*
X905510Y294024D02*
Y371456D01*
Y294024D02*
X909974Y289560D01*
X905510Y371456D02*
X909974Y375920D01*
X854348Y756920D02*
X938530D01*
X840740Y938422D02*
Y960120D01*
X845204Y933958D02*
X950976D01*
X840740Y938422D02*
X845204Y933958D01*
X794404Y935990D02*
X814070D01*
X789940Y940454D02*
X794404Y935990D01*
X789940Y940454D02*
Y960120D01*
X849884Y761384D02*
X854348Y756920D01*
X820312Y706120D02*
X938530D01*
X815848Y710584D02*
X820312Y706120D01*
X1193184Y869950D02*
X1210310D01*
X1188720Y874414D02*
X1193184Y869950D01*
X1188720Y874414D02*
Y904856D01*
X1193184Y909320D01*
D31*
X938530Y807720D02*
D03*
Y782320D02*
D03*
Y756920D02*
D03*
Y731520D02*
D03*
Y680720D02*
D03*
Y706120D02*
D03*
Y655320D02*
D03*
Y629920D02*
D03*
Y579120D02*
D03*
Y604520D02*
D03*
Y553720D02*
D03*
Y528320D02*
D03*
Y477520D02*
D03*
Y502920D02*
D03*
Y452120D02*
D03*
Y426720D02*
D03*
Y375920D02*
D03*
Y401320D02*
D03*
Y350520D02*
D03*
X678180Y807720D02*
D03*
Y782320D02*
D03*
Y756920D02*
D03*
Y731520D02*
D03*
Y680720D02*
D03*
Y706120D02*
D03*
Y655320D02*
D03*
Y629920D02*
D03*
Y579120D02*
D03*
Y604520D02*
D03*
Y553720D02*
D03*
Y528320D02*
D03*
Y477520D02*
D03*
Y502920D02*
D03*
Y452120D02*
D03*
Y426720D02*
D03*
Y375920D02*
D03*
Y401320D02*
D03*
Y350520D02*
D03*
X938530Y325120D02*
D03*
X678180D02*
D03*
X713740Y960120D02*
D03*
X739140D02*
D03*
X764540D02*
D03*
X789940D02*
D03*
X866140D02*
D03*
X815340D02*
D03*
X840740D02*
D03*
X891540D02*
D03*
X916940D02*
D03*
X942340D02*
D03*
X1083310Y895350D02*
D03*
Y869950D02*
D03*
Y844550D02*
D03*
Y819150D02*
D03*
X1210310Y895350D02*
D03*
Y869950D02*
D03*
Y844550D02*
D03*
Y819150D02*
D03*
X358140Y915670D02*
D03*
X383540D02*
D03*
X408940D02*
D03*
X434340D02*
D03*
X459740D02*
D03*
X485140D02*
D03*
X510540D02*
D03*
X535940D02*
D03*
X561340D02*
D03*
X585470D02*
D03*
X358140Y1042670D02*
D03*
X383540D02*
D03*
X408940D02*
D03*
X434340D02*
D03*
X459740D02*
D03*
X485140D02*
D03*
X510540D02*
D03*
X535940D02*
D03*
X561340D02*
D03*
X585470D02*
D03*
D32*
X295910Y701910D02*
D03*
Y676910D02*
D03*
Y664410D02*
D03*
Y651910D02*
D03*
Y689410D02*
D03*
D33*
Y639410D02*
D03*
D34*
X345440Y690880D02*
D03*
X1263650Y819150D02*
D03*
D35*
X345440Y716280D02*
D03*
X739140Y913130D02*
D03*
X1263650Y844550D02*
D03*
X405130Y1093470D02*
D03*
X610870Y858520D02*
D03*
D36*
X1012190Y386080D02*
D03*
D37*
X1062190D02*
D03*
D38*
X713740Y913130D02*
D03*
X379730Y1093470D02*
D03*
X585470Y858520D02*
D03*
D39*
X962660Y1261110D02*
D03*
D40*
X650240D02*
D03*
X675640D02*
D03*
D41*
X937260D02*
D03*
X911860D02*
D03*
X1270000Y1270000D02*
D03*
Y1244600D02*
D03*
X1291590Y350520D02*
D03*
Y325120D02*
D03*
X300990Y350520D02*
D03*
Y325120D02*
D03*
X304800Y1262380D02*
D03*
Y1236980D02*
D03*
D42*
X1270000Y1219200D02*
D03*
X1291590Y299720D02*
D03*
X300990D02*
D03*
X304800Y1211580D02*
D03*
D43*
X551180Y807720D02*
D03*
X557530Y527050D02*
D03*
X551180Y675640D02*
D03*
X1023620Y452120D02*
D03*
X763270Y843280D02*
D03*
X359410Y840740D02*
D03*
X998220Y944880D02*
D03*
X1243330Y929640D02*
D03*
X998220Y712470D02*
D03*
X981710Y774700D02*
D03*
X666750Y859790D02*
D03*
X849884Y828802D02*
D03*
X815848D02*
D03*
X675640Y1292860D02*
D03*
X650240Y1226820D02*
D03*
X678180Y1050290D02*
D03*
Y960120D02*
D03*
X604520Y807720D02*
D03*
X1062990Y982980D02*
D03*
X1014730Y1029970D02*
D03*
X1062895Y913098D02*
D03*
X814070Y935990D02*
D03*
X950976Y933958D02*
D03*
X787654Y915162D02*
D03*
X1032510Y558800D02*
D03*
D44*
X726440Y1069340D02*
D03*
X935990D02*
D03*
D45*
X363220Y979170D02*
D03*
X577850D02*
D03*
D46*
X1107440Y590550D02*
D03*
X993140Y477520D02*
D03*
X1270000D02*
D03*
X480060Y590550D02*
D03*
X594360Y477520D02*
D03*
Y1102360D02*
D03*
X317500Y1103630D02*
D03*
X994410Y1102360D02*
D03*
X481330Y989330D02*
D03*
X1268730Y1102360D02*
D03*
X1107440Y989330D02*
D03*
X318770Y477520D02*
D03*
X480060Y313690D02*
D03*
X1107440D02*
D03*
X1106170Y1267460D02*
D03*
X481330Y1266190D02*
D03*
M02*
